0
SECTION
2
HEADER
9
$INSUNITS
70
4
9
$ACADVER
1
AC1014
9
$HANDSEED
5
FFFF
0
ENDSEC
0
SECTION
2
TABLES
0
TABLE
2
VPORT
5
8
100
AcDbSymbolTable
0
ENDTAB
0
TABLE
2
LTYPE
5
5
100
AcDbSymbolTable
0
LTYPE
5
14
100
AcDbSymbolTableRecord
100
AcDbLinetypeTableRecord
2
BYBLOCK
70
0
0
LTYPE
5
15
100
AcDbSymbolTableRecord
100
AcDbLinetypeTableRecord
2
BYLAYER
70
0
0
LTYPE
5
16
100
AcDbSymbolTableRecord
100
AcDbLinetypeTableRecord
2
DASHED
70
0
3
Dashed __ __ __ __ __ __ __ __ __ __ __ __ __ _
72
65
73
2
40
0.75
49
0.5
74
0
49
-0.25
74
0
0
ENDTAB
0
TABLE
2
LAYER
5
2
100
AcDbSymbolTable
70
2
0
LAYER
5
50
100
AcDbSymbolTableRecord
100
AcDbLayerTableRecord
2
0
70
0
62
7
6
CONTINUOUS
0
ENDTAB
0
TABLE
2
STYLE
5
3
100
AcDbSymbolTable
70
1
0
STYLE
5
11
100
AcDbSymbolTableRecord
100
AcDbTextStyleTableRecord
2
STANDARD
70
0
0
ENDTAB
0
TABLE
2
VIEW
5
6
100
AcDbSymbolTable
70
0
0
ENDTAB
0
TABLE
2
UCS
5
7
100
AcDbSymbolTable
70
0
0
ENDTAB
0
TABLE
2
APPID
5
9
100
AcDbSymbolTable
70
2
0
APPID
5
12
100
AcDbSymbolTableRecord
100
AcDbRegAppTableRecord
2
ACAD
70
0
0
ENDTAB
0
TABLE
2
DIMSTYLE
5
A
100
AcDbSymbolTable
70
1
0
ENDTAB
0
TABLE
2
BLOCK_RECORD
5
1
100
AcDbSymbolTable
70
1
0
BLOCK_RECORD
5
1F
100
AcDbSymbolTableRecord
100
AcDbBlockTableRecord
2
*MODEL_SPACE
0
BLOCK_RECORD
5
1B
100
AcDbSymbolTableRecord
100
AcDbBlockTableRecord
2
*PAPER_SPACE
0
ENDTAB
0
ENDSEC
0
SECTION
2
BLOCKS
0
BLOCK
5
20
100
AcDbEntity
100
AcDbBlockBegin
2
*MODEL_SPACE
0
ENDBLK
5
21
100
AcDbEntity
100
AcDbBlockEnd
0
BLOCK
5
1C
100
AcDbEntity
100
AcDbBlockBegin
2
*PAPER_SPACE
0
ENDBLK
5
1D
100
AcDbEntity
100
AcDbBlockEnd
0
ENDSEC
0
SECTION
2
ENTITIES
0
LINE
5
100
100
AcDbEntity
8
0
100
AcDbLine
10
306.25
20
19.349999999999969
30
0
11
306.25
21
101.34999999999999
31
0
0
LWPOLYLINE
5
101
100
AcDbEntity
8
0
100
AcDbPolyline
90
28
70
1
43
0.0
10
0
20
3.0000000000000071
42
0.4142135623730962
10
3
20
0
10
497.00078509606328
20
0
42
0.41421356237309531
10
499.99989633259952
20
2.9991112365362538
10
499.99989633259941
20
108.00000165402889
42
0.41421356237309853
10
496.99989633259946
20
111.00000165402889
10
489.00189612398316
20
111.00000165402891
42
-0.41421356237309681
10
486.00189612398316
20
114.00000165402889
10
486.00189612398316
20
133.47499999999999
42
0.41421356237309681
10
483.00189612398322
20
136.47499999999999
10
437.52750441264106
20
136.47499999999999
42
0.41421356237309681
10
434.52750441264106
20
133.47499999999999
10
434.52750441264106
20
124.0000018030405
42
0.41421356237309681
10
437.52750441264106
20
121.00000180304052
10
454.00000680983067
20
121.00000180304049
42
-0.41421356237309681
10
457.00000680983067
20
118.0000018030405
10
457.00000680983067
20
112.00000162422657
42
-0.41421356237309681
10
454.00000680983067
20
109.00000162422658
10
400.00000591576099
20
109.00000162422658
42
-0.41421356237309681
10
397.00000591576099
20
112.00000162422657
10
397.00000591576099
20
133.47499999999999
42
0.41421356237308637
10
394.00000591576099
20
136.47500000000002
10
17.000000208616228
20
136.47500000000002
42
0.41421356237308832
10
14.000000208616257
20
133.47499999999999
10
14.000000208616258
20
114.00000165402889
42
-0.41421356237309093
10
11.000000208616258
20
111.00000165402889
10
3
20
111.00000165402889
42
0.41421356237309104
10
-1.6653345369377348e-15
20
108.00000165402889
0
LWPOLYLINE
5
102
100
AcDbEntity
8
0
100
AcDbPolyline
90
13
70
1
43
0.0
10
128.00000195205212
20
106.00000157952309
10
106.0000015348196
20
106.00000157952309
42
-0.41421356237308815
10
103.0000015348196
20
109.00000157952309
10
103.0000015348196
20
120.00000183284283
42
0.41421356237308815
10
100.0000015348196
20
123.00000183284283
10
98.000001415610313
20
123.00000183284283
42
-0.41421356237308815
10
95.000001415610313
20
126.00000183284283
10
95.000001415610313
20
127.00000193715096
42
-0.41421356237308815
10
98.000001415610313
20
130.00000193715096
10
128.00000195205212
20
130.00000193715096
42
-0.41421356237308815
10
131.00000195205212
20
127.00000193715096
10
131.00000195205212
20
123.00000183284283
10
131.00000195205212
20
109.00000157952309
42
-0.41421356237308815
0
LWPOLYLINE
5
103
100
AcDbEntity
8
0
100
AcDbPolyline
90
8
70
1
43
0.0
10
300.00000447034836
20
128.00000195205212
10
300.00000447034836
20
118.00000171363354
42
-0.41421356237309681
10
297.0000044703483
20
115.00000171363355
10
281.00000414252287
20
115.00000171363355
42
-0.41421356237309337
10
278.00000414252281
20
118.00000171363354
10
278.00000414252281
20
128.00000195205212
42
-0.41421356237309337
10
281.00000414252281
20
131.00000195205212
10
297.0000044703483
20
131.00000195205209
42
-0.41421356237309337
0
LINE
5
104
100
AcDbEntity
8
0
100
AcDbLine
10
103.25000000000001
20
19.349999999999969
30
0
11
103.25000000000001
21
101.34999999999999
31
0
0
LINE
5
105
100
AcDbEntity
8
0
100
AcDbLine
10
422.25
20
19.349999999999969
30
0
11
422.25
21
101.34999999999999
31
0
0
LINE
5
106
100
AcDbEntity
8
0
100
AcDbLine
10
454.75
20
19.349999999999969
30
0
11
454.75
21
101.34999999999999
31
0
0
LINE
5
107
100
AcDbEntity
8
0
100
AcDbLine
10
338.75
20
19.349999999999969
30
0
11
338.75
21
101.34999999999999
31
0
0
LINE
5
108
100
AcDbEntity
8
0
100
AcDbLine
10
19.75
20
19.349999999999969
30
0
11
19.75
21
101.34999999999999
31
0
0
CIRCLE
5
109
100
AcDbEntity
8
0
100
AcDbCircle
10
5.0018963325995358
20
4.2249999999999996
30
0
40
1.4999999999999858
210
0
220
0
230
1
0
LINE
5
110
100
AcDbEntity
8
0
100
AcDbLine
10
48.75
20
19.349999999999969
30
0
11
48.75
21
101.34999999999999
31
0
0
CIRCLE
5
111
100
AcDbEntity
8
0
100
AcDbCircle
10
469.20189633259952
20
123.22499999999998
30
0
40
1.4999999999999682
210
0
220
0
230
1
0
LINE
5
112
100
AcDbEntity
8
0
100
AcDbLine
10
135.75
20
19.349999999999969
30
0
11
135.75
21
101.34999999999999
31
0
0
LINE
5
113
100
AcDbEntity
8
0
100
AcDbLine
10
251.75
20
19.349999999999969
30
0
11
251.75
21
101.34999999999999
31
0
0
LINE
5
114
100
AcDbEntity
8
0
100
AcDbLine
10
374.00000557303429
20
110.00000159442425
30
0
11
374.00000557303429
21
121.00000184774399
31
0
0
ARC
5
115
100
AcDbEntity
8
0
100
AcDbCircle
10
377.00000557303429
20
121.000001847744
30
0
40
2.9999999999999716
210
0
220
-0
230
1
100
AcDbArc
50
90
51
180
0
LINE
5
116
100
AcDbEntity
8
0
100
AcDbLine
10
132.25
20
19.349999999999969
30
0
11
132.25
21
101.34999999999999
31
0
0
LINE
5
117
100
AcDbEntity
8
0
100
AcDbLine
10
309.75
20
19.349999999999969
30
0
11
309.75
21
101.34999999999999
31
0
0
LINE
5
118
100
AcDbEntity
8
0
100
AcDbLine
10
219.25
20
19.349999999999969
30
0
11
219.25
21
101.34999999999999
31
0
0
CIRCLE
5
119
100
AcDbEntity
8
0
100
AcDbCircle
10
495.20189633259952
20
4.2249999999999996
30
0
40
1.4999999999999858
210
0
220
0
230
1
0
LINE
5
120
100
AcDbEntity
8
0
100
AcDbLine
10
193.75
20
19.349999999999969
30
0
11
193.75
21
101.34999999999999
31
0
0
LINE
5
121
100
AcDbEntity
8
0
100
AcDbLine
10
335.25
20
19.349999999999969
30
0
11
335.25
21
101.34999999999999
31
0
0
CIRCLE
5
122
100
AcDbEntity
8
0
100
AcDbCircle
10
250.00189633259953
20
4.2249999999999996
30
0
40
1.4999999999999858
210
0
220
0
230
1
0
LINE
5
123
100
AcDbEntity
8
0
100
AcDbLine
10
222.75000000000003
20
19.349999999999969
30
0
11
222.75000000000003
21
101.34999999999999
31
0
0
LINE
5
124
100
AcDbEntity
8
0
100
AcDbLine
10
77.75
20
19.349999999999969
30
0
11
77.75
21
101.34999999999999
31
0
0
LINE
5
125
100
AcDbEntity
8
0
100
AcDbLine
10
451.25
20
19.349999999999969
30
0
11
451.25
21
101.34999999999999
31
0
0
ARC
5
126
100
AcDbEntity
8
0
100
AcDbCircle
10
371.00000557303429
20
110.00000159442423
30
0
40
2.9999999999999716
210
-0
220
0
230
1
100
AcDbArc
50
-90
51
0
0
ARC
5
127
100
AcDbEntity
8
0
100
AcDbCircle
10
377.00000566244125
20
127.00000184774397
30
0
40
2.9999999999999893
210
0
220
0
230
1
100
AcDbArc
50
-90
51
0
0
CIRCLE
5
128
100
AcDbEntity
8
0
100
AcDbCircle
10
6.4749999999999952
20
60.349999999999973
30
0
40
1.5000000000000002
210
0
220
0
230
1
0
ARC
5
129
100
AcDbEntity
8
0
100
AcDbCircle
10
340.00000502169132
20
128.00000195205212
30
0
40
2.9999999999999716
210
0
220
-0
230
1
100
AcDbArc
50
90
51
180
0
LINE
5
130
100
AcDbEntity
8
0
100
AcDbLine
10
367.75
20
19.349999999999969
30
0
11
367.75
21
101.34999999999999
31
0
0
LINE
5
131
100
AcDbEntity
8
0
100
AcDbLine
10
248.25000000000003
20
19.349999999999969
30
0
11
248.25000000000003
21
101.34999999999999
31
0
0
LINE
5
132
100
AcDbEntity
8
0
100
AcDbLine
10
74.25
20
19.349999999999969
30
0
11
74.25
21
101.34999999999999
31
0
0
LINE
5
133
100
AcDbEntity
8
0
100
AcDbLine
10
371.00000557303429
20
107.00000159442426
30
0
11
351.0000051856041
21
107.00000159442425
31
0
0
LINE
5
134
100
AcDbEntity
8
0
100
AcDbLine
10
364.25000000000006
20
19.349999999999969
30
0
11
364.25000000000006
21
101.34999999999999
31
0
0
LINE
5
135
100
AcDbEntity
8
0
100
AcDbLine
10
425.75
20
19.349999999999969
30
0
11
425.75
21
101.34999999999999
31
0
0
LINE
5
136
100
AcDbEntity
8
0
100
AcDbLine
10
190.25000000000003
20
19.349999999999969
30
0
11
190.25000000000003
21
101.34999999999999
31
0
0
ARC
5
137
100
AcDbEntity
8
0
100
AcDbCircle
10
377.00000566244125
20
128.00000195205212
30
0
40
2.9999999999999716
210
0
220
0
230
1
100
AcDbArc
50
0
51
90
0
LINE
5
138
100
AcDbEntity
8
0
100
AcDbLine
10
106.75
20
19.349999999999969
30
0
11
106.75
21
101.34999999999999
31
0
0
LINE
5
139
100
AcDbEntity
8
0
100
AcDbLine
10
164.75
20
19.349999999999969
30
0
11
164.75
21
101.34999999999999
31
0
0
LINE
5
140
100
AcDbEntity
8
0
100
AcDbLine
10
396.75000000000006
20
19.349999999999969
30
0
11
396.75000000000006
21
101.34999999999999
31
0
0
LINE
5
141
100
AcDbEntity
8
0
100
AcDbLine
10
337.00000502169132
20
127.00000184774399
30
0
11
337.00000502169132
21
128.00000195205212
31
0
0
ARC
5
142
100
AcDbEntity
8
0
100
AcDbCircle
10
340.00000502169132
20
127.00000184774397
30
0
40
2.9999999999999716
210
0
220
0
230
1
100
AcDbArc
50
180
51
270
0
LINE
5
143
100
AcDbEntity
8
0
100
AcDbLine
10
340.00000502169132
20
131.00000195205209
30
0
11
377.00000566244125
21
131.00000195205209
31
0
0
CIRCLE
5
144
100
AcDbEntity
8
0
100
AcDbCircle
10
6.4750000000000005
20
60.375002041459069
30
0
40
1.4999999999999996
210
0
220
0
230
1
0
LINE
5
145
100
AcDbEntity
8
0
100
AcDbLine
10
380.00000566244125
20
128.00000195205212
30
0
11
380.00000566244125
21
127.00000184774399
31
0
0
ARC
5
146
100
AcDbEntity
8
0
100
AcDbCircle
10
345.0000051856041
20
121.000001847744
30
0
40
2.9999999999999716
210
0
220
0
230
1
100
AcDbArc
50
0
51
90
0
CIRCLE
5
147
100
AcDbEntity
8
0
100
AcDbCircle
10
31
20
123.22499999999999
30
0
40
1.5000000000000002
210
0
220
0
230
1
0
LINE
5
148
100
AcDbEntity
8
0
100
AcDbLine
10
280.75
20
19.349999999999969
30
0
11
280.75
21
101.34999999999999
31
0
0
LINE
5
149
100
AcDbEntity
8
0
100
AcDbLine
10
345.0000051856041
20
124.00000184774397
30
0
11
340.00000502169132
21
124.00000184774399
31
0
0
LINE
5
150
100
AcDbEntity
8
0
100
AcDbLine
10
45.25
20
19.349999999999969
30
0
11
45.25
21
101.34999999999999
31
0
0
ARC
5
151
100
AcDbEntity
8
0
100
AcDbCircle
10
351.0000051856041
20
110.00000159442423
30
0
40
2.9999999999999716
210
0
220
0
230
1
100
AcDbArc
50
180
51
270
0
LINE
5
152
100
AcDbEntity
8
0
100
AcDbLine
10
348.0000051856041
20
110.00000159442425
30
0
11
348.0000051856041
21
121.00000184774399
31
0
0
CIRCLE
5
153
100
AcDbEntity
8
0
100
AcDbCircle
10
31.001896332599514
20
123.22499999999998
30
0
40
1.4999999999999682
210
0
220
0
230
1
0
LINE
5
154
100
AcDbEntity
8
0
100
AcDbLine
10
393.25
20
19.349999999999969
30
0
11
393.25
21
101.34999999999999
31
0
0
LINE
5
155
100
AcDbEntity
8
0
100
AcDbLine
10
480.25000000000006
20
101.34999999999999
30
0
11
480.25000000000006
21
19.349999999999969
31
0
0
LINE
5
156
100
AcDbEntity
8
0
100
AcDbLine
10
161.25
20
19.349999999999969
30
0
11
161.25
21
101.34999999999999
31
0
0
CIRCLE
5
157
100
AcDbEntity
8
0
100
AcDbCircle
10
493.52499999999998
20
60.375002041459069
30
0
40
1.4999999999999996
210
0
220
0
230
1
0
LINE
5
158
100
AcDbEntity
8
0
100
AcDbLine
10
277.25
20
19.349999999999969
30
0
11
277.25
21
101.34999999999999
31
0
0
CIRCLE
5
159
100
AcDbEntity
8
0
100
AcDbCircle
10
250.0018963325995
20
117.22499999999998
30
0
40
1.5000000000000104
210
0
220
0
230
1
0
LINE
5
160
100
AcDbEntity
8
0
100
AcDbLine
10
454.75
20
19.349999999999969
30
0
11
457.82818128993108
21
10.892766412926793
31
0
0
LINE
5
161
100
AcDbEntity
8
0
100
AcDbLine
10
451.25
20
19.349999999999969
30
0
11
448.17181871006892
21
10.892766412926793
31
0
0
LINE
5
162
100
AcDbEntity
8
0
100
AcDbLine
10
457.82818128993108
20
10.892766412926793
30
0
11
448.17181871006892
21
10.892766412926793
31
0
0
LINE
5
163
100
AcDbEntity
8
0
100
AcDbLine
10
480.25000000000006
20
19.349999999999969
30
0
11
477.17181871006903
21
10.892766412926793
31
0
0
LINE
5
164
100
AcDbEntity
8
0
100
AcDbLine
10
477.17181871006903
20
10.892766412926793
30
0
11
457.82818128993108
21
10.892766412926793
31
0
0
LINE
5
165
100
AcDbEntity
8
0
100
AcDbLine
10
448.17181871006903
20
10.892766412926793
30
0
11
428.82818128993108
21
10.892766412926793
31
0
0
LINE
5
166
100
AcDbEntity
8
0
100
AcDbLine
10
425.75
20
19.349999999999969
30
0
11
428.82818128993108
21
10.892766412926793
31
0
0
LINE
5
167
100
AcDbEntity
8
0
100
AcDbLine
10
428.82818128993108
20
10.892766412926793
30
0
11
419.17181871006898
21
10.892766412926793
31
0
0
LINE
5
168
100
AcDbEntity
8
0
100
AcDbLine
10
422.25
20
19.349999999999969
30
0
11
419.17181871006898
21
10.892766412926793
31
0
0
LINE
5
169
100
AcDbEntity
8
0
100
AcDbLine
10
419.17181871006903
20
10.892766412926793
30
0
11
399.82818128993108
21
10.892766412926793
31
0
0
LINE
5
170
100
AcDbEntity
8
0
100
AcDbLine
10
396.75000000000006
20
19.349999999999969
30
0
11
399.82818128993108
21
10.892766412926793
31
0
0
LINE
5
171
100
AcDbEntity
8
0
100
AcDbLine
10
399.82818128993108
20
10.892766412926793
30
0
11
390.17181871006898
21
10.892766412926793
31
0
0
LINE
5
172
100
AcDbEntity
8
0
100
AcDbLine
10
393.25
20
19.349999999999969
30
0
11
390.17181871006898
21
10.892766412926793
31
0
0
LINE
5
173
100
AcDbEntity
8
0
100
AcDbLine
10
390.17181871006898
20
10.892766412926793
30
0
11
370.82818128993108
21
10.892766412926793
31
0
0
LINE
5
174
100
AcDbEntity
8
0
100
AcDbLine
10
367.75000000000006
20
19.349999999999969
30
0
11
370.82818128993108
21
10.892766412926793
31
0
0
LINE
5
175
100
AcDbEntity
8
0
100
AcDbLine
10
370.82818128993108
20
10.892766412926793
30
0
11
361.17181871006892
21
10.892766412926793
31
0
0
LINE
5
176
100
AcDbEntity
8
0
100
AcDbLine
10
364.25
20
19.349999999999969
30
0
11
361.17181871006892
21
10.892766412926793
31
0
0
LINE
5
177
100
AcDbEntity
8
0
100
AcDbLine
10
361.17181871006898
20
10.892766412926793
30
0
11
341.82818128993108
21
10.892766412926793
31
0
0
LINE
5
178
100
AcDbEntity
8
0
100
AcDbLine
10
338.75
20
19.349999999999969
30
0
11
341.82818128993108
21
10.892766412926793
31
0
0
LINE
5
179
100
AcDbEntity
8
0
100
AcDbLine
10
341.82818128993108
20
10.892766412926793
30
0
11
332.17181871006892
21
10.892766412926793
31
0
0
LINE
5
180
100
AcDbEntity
8
0
100
AcDbLine
10
335.25
20
19.349999999999969
30
0
11
332.17181871006892
21
10.892766412926793
31
0
0
LINE
5
181
100
AcDbEntity
8
0
100
AcDbLine
10
332.17181871006903
20
10.892766412926793
30
0
11
312.82818128993108
21
10.892766412926793
31
0
0
LINE
5
182
100
AcDbEntity
8
0
100
AcDbLine
10
309.75
20
19.349999999999969
30
0
11
312.82818128993108
21
10.892766412926793
31
0
0
LINE
5
183
100
AcDbEntity
8
0
100
AcDbLine
10
312.82818128993108
20
10.892766412926793
30
0
11
303.17181871006892
21
10.892766412926793
31
0
0
LINE
5
184
100
AcDbEntity
8
0
100
AcDbLine
10
306.25
20
19.349999999999969
30
0
11
303.17181871006892
21
10.892766412926793
31
0
0
LINE
5
185
100
AcDbEntity
8
0
100
AcDbLine
10
303.17181871006903
20
10.892766412926793
30
0
11
283.82818128993108
21
10.892766412926793
31
0
0
LINE
5
186
100
AcDbEntity
8
0
100
AcDbLine
10
280.75
20
19.349999999999969
30
0
11
283.82818128993108
21
10.892766412926793
31
0
0
LINE
5
187
100
AcDbEntity
8
0
100
AcDbLine
10
283.82818128993108
20
10.892766412926793
30
0
11
274.17181871006898
21
10.892766412926793
31
0
0
LINE
5
188
100
AcDbEntity
8
0
100
AcDbLine
10
277.25
20
19.349999999999969
30
0
11
274.17181871006898
21
10.892766412926793
31
0
0
LINE
5
189
100
AcDbEntity
8
0
100
AcDbLine
10
274.17181871006898
20
10.892766412926793
30
0
11
254.82818128993105
21
10.892766412926793
31
0
0
LINE
5
190
100
AcDbEntity
8
0
100
AcDbLine
10
251.75
20
19.349999999999969
30
0
11
254.82818128993105
21
10.892766412926793
31
0
0
LINE
5
191
100
AcDbEntity
8
0
100
AcDbLine
10
254.82818128993105
20
10.892766412926793
30
0
11
245.17181871006895
21
10.892766412926793
31
0
0
LINE
5
192
100
AcDbEntity
8
0
100
AcDbLine
10
248.25
20
19.349999999999969
30
0
11
245.17181871006895
21
10.892766412926793
31
0
0
LINE
5
193
100
AcDbEntity
8
0
100
AcDbLine
10
245.171818710069
20
10.892766412926793
30
0
11
225.82818128993108
21
10.892766412926793
31
0
0
LINE
5
194
100
AcDbEntity
8
0
100
AcDbLine
10
222.75000000000003
20
19.349999999999969
30
0
11
225.82818128993108
21
10.892766412926793
31
0
0
LINE
5
195
100
AcDbEntity
8
0
100
AcDbLine
10
225.82818128993108
20
10.892766412926793
30
0
11
216.17181871006895
21
10.892766412926793
31
0
0
LINE
5
196
100
AcDbEntity
8
0
100
AcDbLine
10
219.25
20
19.349999999999969
30
0
11
216.17181871006895
21
10.892766412926793
31
0
0
LINE
5
197
100
AcDbEntity
8
0
100
AcDbLine
10
216.17181871006903
20
10.892766412926793
30
0
11
196.82818128993108
21
10.892766412926793
31
0
0
LINE
5
198
100
AcDbEntity
8
0
100
AcDbLine
10
193.75000000000003
20
19.349999999999969
30
0
11
196.82818128993108
21
10.892766412926793
31
0
0
LINE
5
199
100
AcDbEntity
8
0
100
AcDbLine
10
196.82818128993108
20
10.892766412926793
30
0
11
187.17181871006898
21
10.892766412926793
31
0
0
LINE
5
200
100
AcDbEntity
8
0
100
AcDbLine
10
190.25000000000003
20
19.349999999999969
30
0
11
187.17181871006898
21
10.892766412926793
31
0
0
LINE
5
201
100
AcDbEntity
8
0
100
AcDbLine
10
187.171818710069
20
10.892766412926793
30
0
11
167.82818128993108
21
10.892766412926793
31
0
0
LINE
5
202
100
AcDbEntity
8
0
100
AcDbLine
10
164.75
20
19.349999999999969
30
0
11
167.82818128993108
21
10.892766412926793
31
0
0
LINE
5
203
100
AcDbEntity
8
0
100
AcDbLine
10
167.82818128993108
20
10.892766412926793
30
0
11
158.17181871006895
21
10.892766412926793
31
0
0
LINE
5
204
100
AcDbEntity
8
0
100
AcDbLine
10
161.25
20
19.349999999999969
30
0
11
158.17181871006895
21
10.892766412926793
31
0
0
LINE
5
205
100
AcDbEntity
8
0
100
AcDbLine
10
158.17181871006903
20
10.892766412926793
30
0
11
138.82818128993108
21
10.892766412926793
31
0
0
LINE
5
206
100
AcDbEntity
8
0
100
AcDbLine
10
135.75000000000003
20
19.349999999999969
30
0
11
138.82818128993108
21
10.892766412926793
31
0
0
LINE
5
207
100
AcDbEntity
8
0
100
AcDbLine
10
138.82818128993108
20
10.892766412926793
30
0
11
129.17181871006898
21
10.892766412926793
31
0
0
LINE
5
208
100
AcDbEntity
8
0
100
AcDbLine
10
132.25
20
19.349999999999969
30
0
11
129.17181871006898
21
10.892766412926793
31
0
0
LINE
5
209
100
AcDbEntity
8
0
100
AcDbLine
10
129.17181871006903
20
10.892766412926793
30
0
11
109.82818128993109
21
10.892766412926793
31
0
0
LINE
5
210
100
AcDbEntity
8
0
100
AcDbLine
10
106.75000000000004
20
19.349999999999969
30
0
11
109.82818128993109
21
10.892766412926793
31
0
0
LINE
5
211
100
AcDbEntity
8
0
100
AcDbLine
10
109.82818128993109
20
10.892766412926793
30
0
11
100.17181871006898
21
10.892766412926793
31
0
0
LINE
5
212
100
AcDbEntity
8
0
100
AcDbLine
10
103.25000000000003
20
19.349999999999969
30
0
11
100.17181871006898
21
10.892766412926793
31
0
0
LINE
5
213
100
AcDbEntity
8
0
100
AcDbLine
10
100.17181871006905
20
10.892766412926793
30
0
11
80.828181289931109
21
10.892766412926793
31
0
0
LINE
5
214
100
AcDbEntity
8
0
100
AcDbLine
10
77.750000000000057
20
19.349999999999969
30
0
11
80.828181289931109
21
10.892766412926793
31
0
0
LINE
5
215
100
AcDbEntity
8
0
100
AcDbLine
10
80.828181289931109
20
10.892766412926793
30
0
11
71.17181871006899
21
10.892766412926793
31
0
0
LINE
5
216
100
AcDbEntity
8
0
100
AcDbLine
10
74.250000000000043
20
19.349999999999969
30
0
11
71.17181871006899
21
10.892766412926793
31
0
0
LINE
5
217
100
AcDbEntity
8
0
100
AcDbLine
10
71.17181871006899
20
10.892766412926793
30
0
11
51.828181289931052
21
10.892766412926793
31
0
0
LINE
5
218
100
AcDbEntity
8
0
100
AcDbLine
10
48.75
20
19.349999999999969
30
0
11
51.828181289931052
21
10.892766412926793
31
0
0
LINE
5
219
100
AcDbEntity
8
0
100
AcDbLine
10
51.828181289931052
20
10.892766412926793
30
0
11
42.171818710068933
21
10.892766412926793
31
0
0
LINE
5
220
100
AcDbEntity
8
0
100
AcDbLine
10
45.249999999999986
20
19.349999999999969
30
0
11
42.171818710068933
21
10.892766412926793
31
0
0
LINE
5
221
100
AcDbEntity
8
0
100
AcDbLine
10
42.171818710069005
20
10.892766412926793
30
0
11
22.828181289931067
21
10.892766412926793
31
0
0
LINE
5
222
100
AcDbEntity
8
0
100
AcDbLine
10
19.750000000000014
20
19.349999999999969
30
0
11
22.828181289931067
21
10.892766412926793
31
0
0
ENDSEC
0
SECTION
2
OBJECTS
0
DICTIONARY
5
C
100
AcDbDictionary
3
ACAD_GROUP
350
D
3
ACAD_MLINESTYLE
350
17
0
DICTIONARY
5
D
100
AcDbDictionary
0
DICTIONARY
5
1A
330
C
100
AcDbDictionary
0
DICTIONARY
5
17
100
AcDbDictionary
0
ENDSEC
0
EOF
