999
dxfrw 0.6.3
  0
SECTION
  2
HEADER
  9
$ACADVER
  1
AC1021
  9
$DWGCODEPAGE
  3
ANSI_1252
  9
$INSBASE
 10
0
 20
0
 30
0
  9
$EXTMIN
 10
-2.220446049250313e-15
 20
-510
 30
0
  9
$EXTMAX
 10
699.9998963325995
 20
219.2029678254563
 30
0
  9
$LIMMIN
 10
0
 20
0
  9
$LIMMAX
 10
420
 20
297
  9
$ORTHOMODE
 70
    0
  9
$REGENMODE
 70
    1
  9
$FILLMODE
 70
    1
  9
$QTEXTMODE
 70
    0
  9
$MIRRTEXT
 70
    0
  9
$LTSCALE
 40
1
  9
$ATTMODE
 70
    0
  9
$TEXTSIZE
 40
2.5
  9
$TRACEWID
 40
15.68
  9
$TEXTSTYLE
  7
STANDARD
  9
$CLAYER
  8
0
  9
$CELTYPE
  6
BYLAYER
  9
$CECOLOR
 62
  256
  9
$CELTSCALE
 40
1
  9
$DISPSILH
 70
    0
  9
$DIMSCALE
 40
2.5
  9
$DIMASZ
 40
2.5
  9
$DIMEXO
 40
0.625
  9
$DIMDLI
 40
3.75
  9
$DIMRND
 40
0
  9
$DIMDLE
 40
0
  9
$DIMEXE
 40
1.25
  9
$DIMTP
 40
0
  9
$DIMTM
 40
0
  9
$DIMTXT
 40
2.5
  9
$DIMCEN
 40
2.5
  9
$DIMTSZ
 40
0
  9
$DIMTOL
 70
    0
  9
$DIMLIM
 70
    0
  9
$DIMTIH
 70
    0
  9
$DIMTOH
 70
    0
  9
$DIMSE1
 70
    0
  9
$DIMSE2
 70
    0
  9
$DIMTAD
 70
    1
  9
$DIMZIN
 70
    8
  9
$DIMBLK
  1

  9
$DIMASO
 70
    1
  9
$DIMSHO
 70
    1
  9
$DIMPOST
  1

  9
$DIMAPOST
  1

  9
$DIMALT
 70
    0
  9
$DIMALTD
 70
    3
  9
$DIMALTF
 40
0.03937
  9
$DIMLFAC
 40
1
  9
$DIMTOFL
 70
    1
  9
$DIMTVP
 40
0
  9
$DIMTIX
 70
    0
  9
$DIMSOXD
 70
    0
  9
$DIMSAH
 70
    0
  9
$DIMBLK1
  1

  9
$DIMBLK2
  1

  9
$DIMSTYLE
  2
Standard
  9
$DIMCLRD
 70
    0
  9
$DIMCLRE
 70
    0
  9
$DIMCLRT
 70
    0
  9
$DIMTFAC
 40
1
  9
$DIMGAP
 40
0.625
  9
$DIMJUST
 70
    0
  9
$DIMSD1
 70
    0
  9
$DIMSD2
 70
    0
  9
$DIMTOLJ
 70
    0
  9
$DIMTZIN
 70
    8
  9
$DIMALTZ
 70
    0
  9
$DIMALTTZ
 70
    0
  9
$DIMUPT
 70
    0
  9
$DIMDEC
 70
    2
  9
$DIMTDEC
 70
    2
  9
$DIMALTU
 70
    2
  9
$DIMALTTD
 70
    3
  9
$DIMTXSTY
  7
STANDARD
  9
$DIMAUNIT
 70
    0
  9
$DIMADEC
 70
    0
  9
$DIMALTRND
 40
0
  9
$DIMAZIN
 70
    0
  9
$DIMDSEP
 70
   44
  9
$DIMATFIT
 70
    3
  9
$DIMFRAC
 70
    0
  9
$DIMLDRBLK
  1
STANDARD
  9
$DIMLUNIT
 70
    2
  9
$DIMLWD
 70
   -2
  9
$DIMLWE
 70
   -2
  9
$DIMTMOVE
 70
    0
  9
$DIMFXL
 40
1
  9
$DIMFXLON
 70
    0
  9
$DIMJOGANG
 40
0.7854
  9
$DIMTFILL
 70
    0
  9
$DIMTFILLCLR
 70
    0
  9
$DIMARCSYM
 70
    0
  9
$DIMLTYPE
  6

  9
$DIMLTEX1
  6

  9
$DIMLTEX2
  6

  9
$LUNITS
 70
    2
  9
$LUPREC
 70
    4
  9
$SKETCHINC
 40
1
  9
$FILLETRAD
 40
0
  9
$AUNITS
 70
    0
  9
$AUPREC
 70
    2
  9
$MENU
  1
.
  9
$ELEVATION
 40
0
  9
$PELEVATION
 40
0
  9
$THICKNESS
 40
0
  9
$LIMCHECK
 70
    0
  9
$CHAMFERA
 40
0
  9
$CHAMFERB
 40
0
  9
$CHAMFERC
 40
0
  9
$CHAMFERD
 40
0
  9
$SKPOLY
 70
    0
  9
$USRTIMER
 70
    1
  9
$ANGBASE
 50
0
  9
$ANGDIR
 70
    0
  9
$PDMODE
 70
   96
  9
$PDSIZE
 40
-2
  9
$PLINEWID
 40
0
  9
$SPLFRAME
 70
    0
  9
$SPLINETYPE
 70
    2
  9
$SPLINESEGS
 70
    8
  9
$HANDSEED
  5
20000
  9
$SURFTAB1
 70
    6
  9
$SURFTAB2
 70
    6
  9
$SURFTYPE
 70
    6
  9
$SURFU
 70
    6
  9
$SURFV
 70
    6
  9
$UCSBASE
  2

  9
$UCSNAME
  2

  9
$UCSORG
 10
0
 20
0
 30
0
  9
$UCSXDIR
 10
1
 20
0
 30
0
  9
$UCSYDIR
 10
0
 20
1
 30
0
  9
$UCSORTHOREF
  2

  9
$UCSORTHOVIEW
 70
    0
  9
$UCSORGTOP
 10
0
 20
0
 30
0
  9
$UCSORGBOTTOM
 10
0
 20
0
 30
0
  9
$UCSORGLEFT
 10
0
 20
0
 30
0
  9
$UCSORGRIGHT
 10
0
 20
0
 30
0
  9
$UCSORGFRONT
 10
0
 20
0
 30
0
  9
$UCSORGBACK
 10
0
 20
0
 30
0
  9
$PUCSBASE
  2

  9
$PUCSNAME
  2

  9
$PUCSORG
 10
0
 20
0
 30
0
  9
$PUCSXDIR
 10
1
 20
0
 30
0
  9
$PUCSYDIR
 10
0
 20
1
 30
0
  9
$PUCSORTHOREF
  2

  9
$PUCSORTHOVIEW
 70
    0
  9
$PUCSORGTOP
 10
0
 20
0
 30
0
  9
$PUCSORGBOTTOM
 10
0
 20
0
 30
0
  9
$PUCSORGLEFT
 10
0
 20
0
 30
0
  9
$PUCSORGRIGHT
 10
0
 20
0
 30
0
  9
$PUCSORGFRONT
 10
0
 20
0
 30
0
  9
$PUCSORGBACK
 10
0
 20
0
 30
0
  9
$USERI1
 70
    0
  9
$USERI2
 70
    0
  9
$USERI3
 70
    0
  9
$USERI4
 70
    0
  9
$USERI5
 70
    0
  9
$USERR1
 40
0
  9
$USERR2
 40
0
  9
$USERR3
 40
0
  9
$USERR4
 40
0
  9
$USERR5
 40
0
  9
$WORLDVIEW
 70
    1
  9
$SHADEDGE
 70
    3
  9
$SHADEDIF
 70
   70
  9
$TILEMODE
 70
    1
  9
$MAXACTVP
 70
   64
  9
$PINSBASE
 10
0
 20
0
 30
0
  9
$PLIMCHECK
 70
    0
  9
$PEXTMIN
 10
0
 20
0
 30
0
  9
$PEXTMAX
 10
0
 20
0
 30
0
  9
$SNAPSTYLE
 70
    0
  9
$PLIMMIN
 10
0
 20
0
  9
$PLIMMAX
 10
210
 20
297
  9
$UNITMODE
 70
    0
  9
$VISRETAIN
 70
    1
  9
$PLINEGEN
 70
    0
  9
$PSLTSCALE
 70
    1
  9
$TREEDEPTH
 70
 3020
  9
$CMLSTYLE
  2
Standard
  9
$CMLJUST
 70
    0
  9
$CMLSCALE
 40
20
  9
$PROXYGRAPHICS
 70
    1
  9
$MEASUREMENT
 70
    1
  9
$CELWEIGHT
370
   -1
  9
$ENDCAPS
280
    0
  9
$JOINSTYLE
280
    0
  9
$LWDISPLAY
290
    0
  9
$INSUNITS
 70
    4
  9
$HYPERLINKBASE
  1

  9
$STYLESHEET
  1

  9
$XEDIT
290
    1
  9
$CEPSNTYPE
380
    0
  9
$PSTYLEMODE
290
    1
  9
$EXTNAMES
290
    1
  9
$PSVPSCALE
 40
1
  9
$OLESTARTUP
290
    0
  9
$SORTENTS
280
  127
  9
$INDEXCTL
280
    0
  9
$HIDETEXT
280
    1
  9
$XCLIPFRAME
290
    0
  9
$HALOGAP
280
    0
  9
$OBSCOLOR
 70
  257
  9
$OBSLTYPE
280
    0
  9
$INTERSECTIONDISPLAY
280
    0
  9
$INTERSECTIONCOLOR
 70
  257
  9
$DIMASSOC
280
    1
  9
$PROJECTNAME
  1

  9
$CAMERADISPLAY
290
    0
  9
$LENSLENGTH
 40
50
  9
$CAMERAHEIGHT
 40
0
  9
$STEPSPERSEC
 40
2
  9
$STEPSIZE
 40
50
  9
$3DDWFPREC
 40
2
  9
$PSOLWIDTH
 40
5
  9
$PSOLHEIGHT
 40
80
  9
$LOFTANG1
 40
1.570796326794897
  9
$LOFTANG2
 40
1.570796326794897
  9
$LOFTMAG1
 40
0
  9
$LOFTMAG2
 40
0
  9
$LOFTPARAM
 70
    7
  9
$LOFTNORMALS
280
    1
  9
$LATITUDE
 40
1
  9
$LONGITUDE
 40
1
  9
$NORTHDIRECTION
 40
0
  9
$TIMEZONE
 70
-8000
  9
$LIGHTGLYPHDISPLAY
280
    1
  9
$TILEMODELIGHTSYNCH
280
    1
  9
$SOLIDHIST
280
    1
  9
$SHOWHIST
280
    1
  9
$DWFFRAME
280
    2
  9
$DGNFRAME
280
    0
  9
$REALWORLDSCALE
290
    1
  9
$INTERFERECOLOR
 62
    1
  9
$CSHADOW
280
    0
  9
$SHADOWPLANELOCATION
 40
0
  0
ENDSEC
  0
SECTION
  2
CLASSES
  0
ENDSEC
  0
SECTION
  2
TABLES
  0
TABLE
  2
VPORT
  5
8
330
0
100
AcDbSymbolTable
 70
    1
  0
VPORT
  5
31
330
2
100
AcDbSymbolTableRecord
100
AcDbViewportTableRecord
  2
*ACTIVE
 70
    0
 10
0
 20
0
 11
1
 21
1
 12
600.4054602125179
 22
163.2041361461651
 13
0
 23
0
 14
10
 24
10
 15
10
 25
10
 16
0
 26
0
 36
1
 17
0
 27
0
 37
0
 40
1089.354437203265
 41
1.791717417783191
 42
50
 43
0
 44
0
 50
0
 51
0
 71
    0
 72
  100
 73
    1
 74
    3
 75
    0
 76
    1
 77
    0
 78
    0
281
    0
 65
    1
110
0
120
0
130
0
111
1
121
0
131
0
112
0
122
1
132
0
 79
    0
146
0
348
10020
 60
    7
 61
    5
292
1
282
    1
141
0
142
0
 63
  250
421
3358443
  0
ENDTAB
  0
TABLE
  2
LTYPE
  5
5
330
0
100
AcDbSymbolTable
 70
    4
  0
LTYPE
  5
14
330
5
100
AcDbSymbolTableRecord
100
AcDbLinetypeTableRecord
  2
ByBlock
 70
    0
  3

 72
   65
 73
    0
 40
0
  0
LTYPE
  5
15
330
5
100
AcDbSymbolTableRecord
100
AcDbLinetypeTableRecord
  2
ByLayer
 70
    0
  3

 72
   65
 73
    0
 40
0
  0
LTYPE
  5
16
330
5
100
AcDbSymbolTableRecord
100
AcDbLinetypeTableRecord
  2
Continuous
 70
    0
  3
Solid line
 72
   65
 73
    0
 40
0
  0
LTYPE
  5
32
330
5
100
AcDbSymbolTableRecord
100
AcDbLinetypeTableRecord
  2
DOT
 70
    0
  3
Dot . . . . . . . . . . . . . . . . . . . . . .
 72
   65
 73
    2
 40
6.35
 49
0
 74
    0
 49
-6.35
 74
    0
  0
LTYPE
  5
33
330
5
100
AcDbSymbolTableRecord
100
AcDbLinetypeTableRecord
  2
DOTTINY
 70
    0
  3
Dot (.15x) .....................................
 72
   65
 73
    2
 40
0.9525
 49
0
 74
    0
 49
-0.9525
 74
    0
  0
LTYPE
  5
34
330
5
100
AcDbSymbolTableRecord
100
AcDbLinetypeTableRecord
  2
DOT2
 70
    0
  3
Dot (.5x) .....................................
 72
   65
 73
    2
 40
3.175
 49
0
 74
    0
 49
-3.175
 74
    0
  0
LTYPE
  5
35
330
5
100
AcDbSymbolTableRecord
100
AcDbLinetypeTableRecord
  2
DOTX2
 70
    0
  3
Dot (2x) .  .  .  .  .  .  .  .  .  .  .  .  .
 72
   65
 73
    2
 40
12.7
 49
0
 74
    0
 49
-12.7
 74
    0
  0
LTYPE
  5
36
330
5
100
AcDbSymbolTableRecord
100
AcDbLinetypeTableRecord
  2
DASHED
 70
    0
  3
Dashed _ _ _ _ _ _ _ _ _ _ _ _ _ _ _ _ _
 72
   65
 73
    2
 40
19.05
 49
12.7
 74
    0
 49
-6.35
 74
    0
  0
LTYPE
  5
37
330
5
100
AcDbSymbolTableRecord
100
AcDbLinetypeTableRecord
  2
DASHEDTINY
 70
    0
  3
Dashed (.15x) _ _ _ _ _ _ _ _ _ _ _ _ _ _ _ _ _
 72
   65
 73
    2
 40
2.8575
 49
1.905
 74
    0
 49
-0.9525
 74
    0
  0
LTYPE
  5
38
330
5
100
AcDbSymbolTableRecord
100
AcDbLinetypeTableRecord
  2
DASHED2
 70
    0
  3
Dashed (.5x) _ _ _ _ _ _ _ _ _ _ _ _ _ _ _ _ _
 72
   65
 73
    2
 40
9.524999999999999
 49
6.35
 74
    0
 49
-3.175
 74
    0
  0
LTYPE
  5
39
330
5
100
AcDbSymbolTableRecord
100
AcDbLinetypeTableRecord
  2
DASHEDX2
 70
    0
  3
Dashed (2x) ____  ____  ____  ____  ____  ___
 72
   65
 73
    2
 40
38.09999999999999
 49
25.4
 74
    0
 49
-12.7
 74
    0
  0
LTYPE
  5
3A
330
5
100
AcDbSymbolTableRecord
100
AcDbLinetypeTableRecord
  2
DASHDOT
 70
    0
  3
Dash dot __ . __ . __ . __ . __ . __ . __ . __
 72
   65
 73
    4
 40
25.4
 49
12.7
 74
    0
 49
-6.35
 74
    0
 49
0
 74
    0
 49
-6.35
 74
    0
  0
LTYPE
  5
3B
330
5
100
AcDbSymbolTableRecord
100
AcDbLinetypeTableRecord
  2
DASHDOTTINY
 70
    0
  3
Dash dot (.15x) _._._._._._._._._._._._._._._.
 72
   65
 73
    4
 40
3.81
 49
1.905
 74
    0
 49
-0.9525
 74
    0
 49
0
 74
    0
 49
-0.9525
 74
    0
  0
LTYPE
  5
3C
330
5
100
AcDbSymbolTableRecord
100
AcDbLinetypeTableRecord
  2
DASHDOT2
 70
    0
  3
Dash dot (.5x) _._._._._._._._._._._._._._._.
 72
   65
 73
    4
 40
12.7
 49
6.35
 74
    0
 49
-3.175
 74
    0
 49
0
 74
    0
 49
-3.175
 74
    0
  0
LTYPE
  5
3D
330
5
100
AcDbSymbolTableRecord
100
AcDbLinetypeTableRecord
  2
DASHDOTX2
 70
    0
  3
Dash dot (2x) ____  .  ____  .  ____  .  ___
 72
   65
 73
    4
 40
50.8
 49
25.4
 74
    0
 49
-12.7
 74
    0
 49
0
 74
    0
 49
-12.7
 74
    0
  0
LTYPE
  5
3E
330
5
100
AcDbSymbolTableRecord
100
AcDbLinetypeTableRecord
  2
DIVIDE
 70
    0
  3
Divide ____ . . ____ . . ____ . . ____ . . ____
 72
   65
 73
    6
 40
31.75
 49
12.7
 74
    0
 49
-6.35
 74
    0
 49
0
 74
    0
 49
-6.35
 74
    0
 49
0
 74
    0
 49
-6.35
 74
    0
  0
LTYPE
  5
3F
330
5
100
AcDbSymbolTableRecord
100
AcDbLinetypeTableRecord
  2
DIVIDETINY
 70
    0
  3
Divide (.15x) __..__..__..__..__..__..__..__.._
 72
   65
 73
    6
 40
4.7625
 49
1.905
 74
    0
 49
-0.9525
 74
    0
 49
0
 74
    0
 49
-0.9525
 74
    0
 49
0
 74
    0
 49
-0.9525
 74
    0
  0
LTYPE
  5
40
330
5
100
AcDbSymbolTableRecord
100
AcDbLinetypeTableRecord
  2
DIVIDE2
 70
    0
  3
Divide (.5x) __..__..__..__..__..__..__..__.._
 72
   65
 73
    6
 40
15.875
 49
6.35
 74
    0
 49
-3.175
 74
    0
 49
0
 74
    0
 49
-3.175
 74
    0
 49
0
 74
    0
 49
-3.175
 74
    0
  0
LTYPE
  5
41
330
5
100
AcDbSymbolTableRecord
100
AcDbLinetypeTableRecord
  2
DIVIDEX2
 70
    0
  3
Divide (2x) ________  .  .  ________  .  .  _
 72
   65
 73
    6
 40
63.5
 49
25.4
 74
    0
 49
-12.7
 74
    0
 49
0
 74
    0
 49
-12.7
 74
    0
 49
0
 74
    0
 49
-12.7
 74
    0
  0
LTYPE
  5
42
330
5
100
AcDbSymbolTableRecord
100
AcDbLinetypeTableRecord
  2
BORDER
 70
    0
  3
Border __ __ . __ __ . __ __ . __ __ . __ __ .
 72
   65
 73
    6
 40
44.45
 49
12.7
 74
    0
 49
-6.35
 74
    0
 49
12.7
 74
    0
 49
-6.35
 74
    0
 49
0
 74
    0
 49
-6.35
 74
    0
  0
LTYPE
  5
43
330
5
100
AcDbSymbolTableRecord
100
AcDbLinetypeTableRecord
  2
BORDERTINY
 70
    0
  3
Border (.15x) __.__.__.__.__.__.__.__.__.__.__.
 72
   65
 73
    6
 40
6.6675
 49
1.905
 74
    0
 49
-0.9525
 74
    0
 49
1.905
 74
    0
 49
-0.9525
 74
    0
 49
0
 74
    0
 49
-0.9525
 74
    0
  0
LTYPE
  5
44
330
5
100
AcDbSymbolTableRecord
100
AcDbLinetypeTableRecord
  2
BORDER2
 70
    0
  3
Border (.5x) __.__.__.__.__.__.__.__.__.__.__.
 72
   65
 73
    6
 40
22.225
 49
6.35
 74
    0
 49
-3.175
 74
    0
 49
6.35
 74
    0
 49
-3.175
 74
    0
 49
0
 74
    0
 49
-3.175
 74
    0
  0
LTYPE
  5
45
330
5
100
AcDbSymbolTableRecord
100
AcDbLinetypeTableRecord
  2
BORDERX2
 70
    0
  3
Border (2x) ____  ____  .  ____  ____  .  ___
 72
   65
 73
    6
 40
88.89999999999999
 49
25.4
 74
    0
 49
-12.7
 74
    0
 49
25.4
 74
    0
 49
-12.7
 74
    0
 49
0
 74
    0
 49
-12.7
 74
    0
  0
LTYPE
  5
46
330
5
100
AcDbSymbolTableRecord
100
AcDbLinetypeTableRecord
  2
CENTER
 70
    0
  3
Center ____ _ ____ _ ____ _ ____ _ ____ _ ____
 72
   65
 73
    4
 40
50.8
 49
31.75
 74
    0
 49
-6.35
 74
    0
 49
6.35
 74
    0
 49
-6.35
 74
    0
  0
LTYPE
  5
47
330
5
100
AcDbSymbolTableRecord
100
AcDbLinetypeTableRecord
  2
CENTERTINY
 70
    0
  3
Center (.15x) ___ _ ___ _ ___ _ ___ _ ___ _ ___
 72
   65
 73
    4
 40
7.619999999999999
 49
4.7625
 74
    0
 49
-0.9525
 74
    0
 49
0.9525
 74
    0
 49
-0.9525
 74
    0
  0
LTYPE
  5
48
330
5
100
AcDbSymbolTableRecord
100
AcDbLinetypeTableRecord
  2
CENTER2
 70
    0
  3
Center (.5x) ___ _ ___ _ ___ _ ___ _ ___ _ ___
 72
   65
 73
    4
 40
28.575
 49
19.05
 74
    0
 49
-3.175
 74
    0
 49
3.175
 74
    0
 49
-3.175
 74
    0
  0
LTYPE
  5
49
330
5
100
AcDbSymbolTableRecord
100
AcDbLinetypeTableRecord
  2
CENTERX2
 70
    0
  3
Center (2x) ________  __  ________  __  _____
 72
   65
 73
    4
 40
101.6
 49
63.5
 74
    0
 49
-12.7
 74
    0
 49
12.7
 74
    0
 49
-12.7
 74
    0
  0
ENDTAB
  0
TABLE
  2
LAYER
  5
2
330
0
100
AcDbSymbolTable
 70
    1
  0
LAYER
  5
10
330
2
100
AcDbSymbolTableRecord
100
AcDbLayerTableRecord
  2
0
 70
    0
 62
    7
  6
CONTINUOUS
370
   -3
390
F
  0
ENDTAB
  0
TABLE
  2
STYLE
  5
3
330
0
100
AcDbSymbolTable
 70
    3
  0
STYLE
  5
4A
330
2
100
AcDbSymbolTableRecord
100
AcDbTextStyleTableRecord
  2
Standard
 70
    0
 40
0
 41
1
 50
0
 71
    0
 42
1
  3
txt
  4

  0
ENDTAB
  0
TABLE
  2
VIEW
  5
6
330
0
100
AcDbSymbolTable
 70
    0
  0
ENDTAB
  0
TABLE
  2
UCS
  5
7
330
0
100
AcDbSymbolTable
 70
    0
  0
ENDTAB
  0
TABLE
  2
APPID
  5
9
330
0
100
AcDbSymbolTable
 70
    1
  0
APPID
  5
12
330
9
100
AcDbSymbolTableRecord
100
AcDbRegAppTableRecord
  2
ACAD
 70
    0
  0
APPID
  5
4B
330
9
100
AcDbSymbolTableRecord
100
AcDbRegAppTableRecord
  2
LibreCad
 70
    0
  0
ENDTAB
  0
TABLE
  2
DIMSTYLE
  5
A
330
0
100
AcDbSymbolTable
 70
    1
100
AcDbDimStyleTable
 71
    1
  0
DIMSTYLE
105
4C
330
A
100
AcDbSymbolTableRecord
100
AcDbDimStyleTableRecord
  2
Standard
 70
    0
 40
1
 41
2.5
 42
0.625
 43
0.38
 44
1.25
 45
0
 46
0
 47
0
 48
0
 49
1
140
2.5
141
0.09
142
2.5
143
25.4
144
1
145
0
146
1
147
0.625
148
0
 71
    0
 72
    0
 73
    0
 74
    1
 75
    0
 76
    0
 77
    0
 78
    1
 79
    0
170
    0
171
    2
172
    0
173
    0
174
    0
175
    0
176
    0
177
    0
178
    0
179
    0
271
    2
272
    4
273
    2
274
    2
275
    0
276
    0
277
    2
278
    0
279
    0
280
    0
281
    0
282
    0
283
    1
284
    0
285
    0
286
    0
288
    0
289
    3
340
4A
  0
ENDTAB
  0
TABLE
  2
BLOCK_RECORD
  5
1
330
0
100
AcDbSymbolTable
 70
    2
  0
BLOCK_RECORD
  5
1F
330
1
100
AcDbSymbolTableRecord
100
AcDbBlockTableRecord
  2
*Model_Space
 70
    0
280
    1
281
    0
  0
BLOCK_RECORD
  5
1E
330
1
100
AcDbSymbolTableRecord
100
AcDbBlockTableRecord
  2
*Paper_Space
 70
    0
280
    1
281
    0
  0
ENDTAB
  0
ENDSEC
  0
SECTION
  2
BLOCKS
  0
BLOCK
  5
20
330
1F
100
AcDbEntity
  8
0
100
AcDbBlockBegin
  2
*Model_Space
 70
    0
 10
0
 20
0
 30
0
  3
*Model_Space
  1

  0
ENDBLK
  5
21
330
1F
100
AcDbEntity
  8
0
100
AcDbBlockEnd
  0
BLOCK
  5
1C
330
1B
100
AcDbEntity
  8
0
100
AcDbBlockBegin
  2
*Paper_Space
 70
    0
 10
0
 20
0
 30
0
  3
*Paper_Space
  1

  0
ENDBLK
  5
1D
330
1F
100
AcDbEntity
  8
0
100
AcDbBlockEnd
  0
ENDSEC
  0
SECTION
  2
ENTITIES
  0
LWPOLYLINE
  5
4D
100
AcDbEntity
  8
0
  6
ByLayer
 62
  256
370
   -1
100
AcDbPolyline
 90
    8
 70
    1
 43
0
 10
2.999999999999989
 20
0
 10
696.9998963325995
 20
4.440892098500626e-16
 42
0.414213562373094
 10
699.9998963325995
 20
2.999999999999997
 10
699.9998963325995
 20
133.475
 42
0.414213562373095
 10
696.9998963325995
 20
136.475
 10
3.000000000000025
 20
136.475
 42
0.414213562373094
 10
0
 20
133.475
 10
4.440892098500626e-16
 20
3.000000000000006
 42
0.4142135623730966
  0
CIRCLE
  5
4E
100
AcDbEntity
  8
0
  6
ByLayer
 62
  256
370
   -1
100
AcDbCircle
 10
350.0018963325995
 20
117.225
 40
1.50000000000001
  0
CIRCLE
  5
4F
100
AcDbEntity
  8
0
  6
ByLayer
 62
  256
370
   -1
100
AcDbCircle
 10
569.2018963325995
 20
123.225
 40
1.499999999999968
  0
CIRCLE
  5
50
100
AcDbEntity
  8
0
  6
ByLayer
 62
  256
370
   -1
100
AcDbCircle
 10
593.525
 20
60.37500204145907
 40
1.5
  0
CIRCLE
  5
51
100
AcDbEntity
  8
0
  6
ByLayer
 62
  256
370
   -1
100
AcDbCircle
 10
105.0018963325995
 20
4.225
 40
1.499999999999986
  0
CIRCLE
  5
52
100
AcDbEntity
  8
0
  6
ByLayer
 62
  256
370
   -1
100
AcDbCircle
 10
350.0018963325995
 20
4.225
 40
1.499999999999986
  0
CIRCLE
  5
53
100
AcDbEntity
  8
0
  6
ByLayer
 62
  256
370
   -1
100
AcDbCircle
 10
595.2018963325995
 20
4.225
 40
1.499999999999986
  0
CIRCLE
  5
54
100
AcDbEntity
  8
0
  6
ByLayer
 62
  256
370
   -1
100
AcDbCircle
 10
131.0018963325995
 20
123.225
 40
1.499999999999968
  0
CIRCLE
  5
55
100
AcDbEntity
  8
0
  6
ByLayer
 62
  256
370
   -1
100
AcDbCircle
 10
106.475
 20
60.37500204145907
 40
1.5
  0
ARC
  5
56
100
AcDbEntity
  8
0
  6
ByLayer
 62
  256
370
   -1
100
AcDbCircle
 10
118.3481262906842
 20
161.765111537659
 40
3.999999999999986
100
AcDbArc
 50
-180
 51
-89.99999999999797
  0
LINE
  5
57
100
AcDbEntity
  8
0
  6
ByLayer
 62
  256
370
   -1
100
AcDbLine
 10
114.3481262906842
 20
161.765111537659
 11
114.3481262906843
 21
173.7651115376591
  0
ARC
  5
58
100
AcDbEntity
  8
0
  6
ByLayer
 62
  256
370
   -1
100
AcDbCircle
 10
118.3481262906845
 20
173.7651115376589
 40
4.000000000000199
100
AcDbArc
 50
90.00000000000205
 51
180
  0
LINE
  5
59
100
AcDbEntity
  8
0
  6
ByLayer
 62
  256
370
   -1
100
AcDbLine
 10
118.3481262906844
 20
177.7651115376591
 11
277.4891920811063
 21
177.7651115376592
  0
LINE
  5
5A
100
AcDbEntity
  8
0
  6
ByLayer
 62
  256
370
   -1
100
AcDbLine
 10
476.9180347523604
 20
211.8780762463355
 11
497.4268109958814
 21
219.1057405252024
  0
LINE
  5
5B
100
AcDbEntity
  8
0
  6
ByLayer
 62
  256
370
   -1
100
AcDbLine
 10
497.4268109958814
 20
219.1057405252024
 11
494.0066092058697
 21
209.7088133371676
  0
LINE
  5
5C
100
AcDbEntity
  8
0
  6
ByLayer
 62
  256
370
   -1
100
AcDbLine
 10
494.0066092058697
 20
209.7088133371676
 11
499.4747537337681
 21
207.718571492347
  0
LINE
  5
5D
100
AcDbEntity
  8
0
  6
ByLayer
 62
  256
370
   -1
100
AcDbLine
 10
464.3341978788487
 20
157.7651115376594
 11
118.3481262906844
 21
157.7651115376591
  0
LINE
  5
5E
100
AcDbEntity
  8
0
  6
ByLayer
 62
  256
370
   -1
100
AcDbLine
 10
482.3737463546672
 20
160.7339397376365
 11
476.9056017847615
 21
162.7241815977466
  0
LINE
  5
5F
100
AcDbEntity
  8
0
  6
ByLayer
 62
  256
370
   -1
100
AcDbLine
 10
473.4854003005401
 20
153.3272552498623
 11
468.7246365781692
 21
156.4527155949814
  0
ARC
  5
60
100
AcDbEntity
  8
0
  6
ByLayer
 62
  256
370
   -1
100
AcDbCircle
 10
464.334197878849
 20
149.7651115376596
 40
7.999999999999746
100
AcDbArc
 50
56.71494159841092
 51
90.00000000000203
  0
LINE
  5
61
100
AcDbEntity
  8
0
  6
ByLayer
 62
  256
370
   -1
100
AcDbLine
 10
476.9056017847615
 20
162.7241815977466
 11
473.4854003005401
 21
153.3272552498623
  0
LINE
  5
62
100
AcDbEntity
  8
0
  6
ByLayer
 62
  256
370
   -1
100
AcDbLine
 10
499.4747537337681
 20
207.718571492347
 11
482.3737463546672
 21
160.7339397376365
  0
CIRCLE
  5
63
100
AcDbEntity
  8
0
  6
ByLayer
 62
  256
370
   -1
100
AcDbCircle
 10
299.9878286333463
 20
167.7651115376592
 40
1.499999999999999
  0
CIRCLE
  5
64
100
AcDbEntity
  8
0
  6
ByLayer
 62
  256
370
   -1
100
AcDbCircle
 10
227.9878286333463
 20
167.765111537659
 40
1.499999999999986
  0
LWPOLYLINE
  5
65
100
AcDbEntity
  8
0
  6
ByLayer
 62
  256
370
   -1
100
AcDbPolyline
 90
   10
 70
    1
 43
0
 10
336.5756210379081
 20
167.7651115376593
 10
336.5756210379083
 20
161.7651115376594
 42
-0.4142135623731117
 10
335.5756210379084
 20
160.7651115376594
 10
328.5756210379083
 20
160.7651115376592
 42
-0.414213562373095
 10
327.5756210379083
 20
161.7651115376592
 10
327.5756210379085
 20
167.7651115376592
 10
327.5756210379083
 20
173.7651115376593
 42
-0.414213562373095
 10
328.5756210379083
 20
174.7651115376592
 10
335.5756210379081
 20
174.7651115376592
 42
-0.414213562373095
 10
336.5756210379081
 20
173.7651115376592
  0
CIRCLE
  5
66
100
AcDbEntity
  8
0
  6
ByLayer
 62
  256
370
   -1
100
AcDbCircle
 10
155.9878286333462
 20
167.765111537659
 40
1.499999999999981
  0
LWPOLYLINE
  5
67
100
AcDbEntity
  8
0
  6
ByLayer
 62
  256
370
   -1
100
AcDbPolyline
 90
    8
 70
    1
 43
0
 10
415.5756210379081
 20
179.7651115376593
 10
408.5756210379083
 20
179.7651115376593
 42
0.4142135623731283
 10
407.5756210379083
 20
178.7651115376593
 10
407.5756210379083
 20
176.7651115376593
 42
0.4142135623731117
 10
408.5756210379083
 20
175.7651115376593
 10
415.575621037908
 20
175.7651115376595
 42
0.4142135623731117
 10
416.5756210379081
 20
176.7651115376595
 10
416.5756210379081
 20
178.7651115376592
 42
0.4142135623731034
  0
LWPOLYLINE
  5
68
100
AcDbEntity
  8
0
  6
ByLayer
 62
  256
370
   -1
100
AcDbPolyline
 90
    8
 70
    1
 43
0
 10
407.5756210379083
 20
168.7651115376592
 10
407.5756210379083
 20
166.7651115376592
 42
0.414213562373095
 10
408.5756210379083
 20
165.7651115376592
 10
415.5756210379084
 20
165.7651115376593
 42
0.4142135623731283
 10
416.5756210379084
 20
166.7651115376595
 10
416.5756210379081
 20
168.7651115376591
 42
0.4142135623730201
 10
415.5756210379081
 20
169.765111537659
 10
408.5756210379083
 20
169.7651115376592
 42
0.4142135623731117
  0
LINE
  5
69
100
AcDbEntity
  8
0
  6
ByLayer
 62
  256
370
   -1
100
AcDbLine
 10
114.3481262906842
 20
161.765111537659
 11
114.3481262906843
 21
173.7651115376591
  0
LWPOLYLINE
  5
6A
100
AcDbEntity
  8
0
  6
ByLayer
 62
  256
370
   -1
100
AcDbPolyline
 90
   10
 70
    1
 43
0
 10
335.5756210379084
 20
160.7651115376593
 10
328.5756210379083
 20
160.7651115376592
 42
-0.414213562373095
 10
327.5756210379083
 20
161.7651115376592
 10
327.5756210379085
 20
167.7651115376592
 10
327.5756210379083
 20
173.7651115376593
 42
-0.414213562373095
 10
328.5756210379083
 20
174.7651115376592
 10
335.5756210379081
 20
174.7651115376592
 42
-0.414213562373095
 10
336.5756210379081
 20
173.7651115376592
 10
336.5756210379081
 20
167.7651115376593
 10
336.5756210379083
 20
161.7651115376594
 42
-0.4142135623731117
  0
LINE
  5
6B
100
AcDbEntity
  8
0
  6
ByLayer
 62
  256
370
   -1
100
AcDbLine
 10
464.3341978788487
 20
157.7651115376594
 11
118.3481262906844
 21
157.7651115376591
  0
LWPOLYLINE
  5
6C
100
AcDbEntity
  8
0
  6
ByLayer
 62
  256
370
   -1
100
AcDbPolyline
 90
    8
 70
    1
 43
0
 10
407.5756210379083
 20
168.7651115376592
 10
407.5756210379083
 20
166.7651115376592
 42
0.414213562373095
 10
408.5756210379083
 20
165.7651115376592
 10
415.5756210379084
 20
165.7651115376593
 42
0.4142135623731283
 10
416.5756210379084
 20
166.7651115376595
 10
416.5756210379081
 20
168.7651115376591
 42
0.4142135623730201
 10
415.5756210379081
 20
169.765111537659
 10
408.5756210379083
 20
169.7651115376592
 42
0.4142135623731117
  0
LWPOLYLINE
  5
6D
100
AcDbEntity
  8
0
  6
ByLayer
 62
  256
370
   -1
100
AcDbPolyline
 90
    8
 70
    1
 43
0
 10
416.5756210379081
 20
178.7651115376592
 42
0.4142135623731034
 10
415.5756210379081
 20
179.7651115376593
 10
408.5756210379083
 20
179.7651115376593
 42
0.4142135623731283
 10
407.5756210379083
 20
178.7651115376593
 10
407.5756210379083
 20
176.7651115376593
 42
0.4142135623731117
 10
408.5756210379083
 20
175.7651115376593
 10
415.575621037908
 20
175.7651115376595
 42
0.4142135623731117
 10
416.5756210379081
 20
176.7651115376595
  0
LINE
  5
6E
100
AcDbEntity
  8
0
  6
ByLayer
 62
  256
370
   -1
100
AcDbLine
 10
473.4854003005401
 20
153.3272552498623
 11
468.7246365781692
 21
156.4527155949814
  0
LINE
  5
6F
100
AcDbEntity
  8
0
  6
ByLayer
 62
  256
370
   -1
100
AcDbLine
 10
494.0066092058697
 20
209.7088133371676
 11
499.4747537337681
 21
207.718571492347
  0
ARC
  5
70
100
AcDbEntity
  8
0
  6
ByLayer
 62
  256
370
   -1
100
AcDbCircle
 10
464.334197878849
 20
149.7651115376596
 40
7.999999999999746
100
AcDbArc
 50
56.71494159841092
 51
90.00000000000203
  0
LINE
  5
71
100
AcDbEntity
  8
0
  6
ByLayer
 62
  256
370
   -1
100
AcDbLine
 10
497.4268109958814
 20
219.1057405252024
 11
494.0066092058697
 21
209.7088133371676
  0
ARC
  5
72
100
AcDbEntity
  8
0
  6
ByLayer
 62
  256
370
   -1
100
AcDbCircle
 10
118.3481262906842
 20
161.765111537659
 40
3.999999999999986
100
AcDbArc
 50
-180
 51
-89.99999999999797
  0
ARC
  5
73
100
AcDbEntity
  8
0
  6
ByLayer
 62
  256
370
   -1
100
AcDbCircle
 10
118.3481262906845
 20
173.7651115376589
 40
4.000000000000199
100
AcDbArc
 50
90.00000000000205
 51
180
  0
CIRCLE
  5
74
100
AcDbEntity
  8
0
  6
ByLayer
 62
  256
370
   -1
100
AcDbCircle
 10
227.9878286333463
 20
167.765111537659
 40
1.499999999999986
  0
LINE
  5
75
100
AcDbEntity
  8
0
  6
ByLayer
 62
  256
370
   -1
100
AcDbLine
 10
482.3737463546672
 20
160.7339397376365
 11
476.9056017847615
 21
162.7241815977466
  0
LINE
  5
76
100
AcDbEntity
  8
0
  6
ByLayer
 62
  256
370
   -1
100
AcDbLine
 10
476.9056017847615
 20
162.7241815977466
 11
473.4854003005401
 21
153.3272552498623
  0
CIRCLE
  5
77
100
AcDbEntity
  8
0
  6
ByLayer
 62
  256
370
   -1
100
AcDbCircle
 10
477.5999944281818
 20
199.7176631612572
 40
2.5
  0
LINE
  5
78
100
AcDbEntity
  8
0
  6
ByLayer
 62
  256
370
   -1
100
AcDbLine
 10
476.9180347523604
 20
211.8780762463355
 11
497.4268109958814
 21
219.1057405252024
  0
CIRCLE
  5
79
100
AcDbEntity
  8
0
  6
ByLayer
 62
  256
370
   -1
100
AcDbCircle
 10
299.9878286333463
 20
167.7651115376592
 40
1.499999999999999
  0
LINE
  5
7A
100
AcDbEntity
  8
0
  6
ByLayer
 62
  256
370
   -1
100
AcDbLine
 10
499.4747537337681
 20
207.718571492347
 11
482.3737463546672
 21
160.7339397376365
  0
CIRCLE
  5
7B
100
AcDbEntity
  8
0
  6
ByLayer
 62
  256
370
   -1
100
AcDbCircle
 10
155.9878286333462
 20
167.765111537659
 40
1.499999999999981
  0
LWPOLYLINE
  5
7C
100
AcDbEntity
  8
0
  6
ByLayer
 62
  256
370
   -1
100
AcDbPolyline
 90
    8
 70
    1
 43
0
 10
103.5756210379085
 20
203.7651115376595
 10
103.5756210379085
 20
205.7651115376595
 42
0.414213562373095
 10
102.5756210379086
 20
206.7651115376594
 10
95.57562103790843
 20
206.7651115376594
 42
0.4142135623731325
 10
94.57562103790849
 20
205.7651115376592
 10
94.57562103790872
 20
203.7651115376596
 42
0.4142135623730284
 10
95.57562103790872
 20
202.7651115376597
 10
102.5756210379085
 20
202.7651115376595
 42
0.41421356237312
  0
ARC
  5
7D
100
AcDbEntity
  8
0
  6
ByLayer
 62
  256
370
   -1
100
AcDbCircle
 10
46.81704419696782
 20
222.7651115376591
 40
7.999999999999746
100
AcDbArc
 50
236.7149415984109
 51
270.0000000000018
  0
LWPOLYLINE
  5
7E
100
AcDbEntity
  8
0
  6
ByLayer
 62
  256
370
   -1
100
AcDbPolyline
 90
    8
 70
    1
 43
0
 10
103.5756210379085
 20
195.7651115376594
 42
0.4142135623731367
 10
102.5756210379085
 20
196.7651115376594
 10
95.57562103790879
 20
196.7651115376592
 42
0.41421356237312
 10
94.57562103790876
 20
195.7651115376592
 10
94.57562103790877
 20
193.7651115376595
 42
0.4142135623730909
 10
95.57562103790872
 20
192.7651115376594
 10
102.5756210379086
 20
192.7651115376594
 42
0.4142135623731159
 10
103.5756210379085
 20
193.7651115376594
  0
LWPOLYLINE
  5
7F
100
AcDbEntity
  8
0
  6
ByLayer
 62
  256
370
   -1
100
AcDbPolyline
 90
   10
 70
    1
 43
0
 10
183.5756210379085
 20
210.7651115376595
 42
0.414213562373095
 10
182.5756210379086
 20
211.7651115376595
 10
175.5756210379084
 20
211.7651115376593
 42
0.4142135623731283
 10
174.5756210379085
 20
210.7651115376592
 10
174.5756210379088
 20
204.7651115376594
 10
174.5756210379088
 20
198.7651115376594
 42
0.414213562373095
 10
175.5756210379087
 20
197.7651115376593
 10
182.5756210379086
 20
197.7651115376594
 42
0.414213562373095
 10
183.5756210379085
 20
198.7651115376594
 10
183.5756210379084
 20
204.7651115376594
  0
LINE
  5
80
100
AcDbEntity
  8
0
  6
ByLayer
 62
  256
370
   -1
100
AcDbLine
 10
13.72443107993547
 20
153.4244825501162
 11
17.14463286994718
 21
162.821409738151
  0
LWPOLYLINE
  5
81
100
AcDbEntity
  8
0
  6
ByLayer
 62
  256
370
   -1
100
AcDbPolyline
 90
   10
 70
    1
 43
0
 10
183.5756210379085
 20
210.7651115376595
 42
0.414213562373095
 10
182.5756210379086
 20
211.7651115376595
 10
175.5756210379084
 20
211.7651115376593
 42
0.4142135623731283
 10
174.5756210379085
 20
210.7651115376592
 10
174.5756210379088
 20
204.7651115376594
 10
174.5756210379088
 20
198.7651115376594
 42
0.414213562373095
 10
175.5756210379087
 20
197.7651115376593
 10
182.5756210379086
 20
197.7651115376594
 42
0.414213562373095
 10
183.5756210379085
 20
198.7651115376594
 10
183.5756210379084
 20
204.7651115376594
  0
LINE
  5
82
100
AcDbEntity
  8
0
  6
ByLayer
 62
  256
370
   -1
100
AcDbLine
 10
13.72443107993547
 20
153.4244825501162
 11
17.14463286994718
 21
162.821409738151
  0
LINE
  5
83
100
AcDbEntity
  8
0
  6
ByLayer
 62
  256
370
   -1
100
AcDbLine
 10
17.14463286994718
 20
162.821409738151
 11
11.67648834204872
 21
164.8116515829716
  0
LINE
  5
84
100
AcDbEntity
  8
0
  6
ByLayer
 62
  256
370
   -1
100
AcDbLine
 10
392.8031157851325
 20
194.7651115376595
 11
233.6620499947105
 21
194.7651115376594
  0
ARC
  5
85
100
AcDbEntity
  8
0
  6
ByLayer
 62
  256
370
   -1
100
AcDbCircle
 10
233.662049994712
 20
-405.2348884623464
 40
600.0000000000058
100
AcDbArc
 50
90.00000000000014
 51
109.4133809419463
  0
LINE
  5
86
100
AcDbEntity
  8
0
  6
ByLayer
 62
  256
370
   -1
100
AcDbLine
 10
46.81704419696807
 20
214.7651115376593
 11
392.8031157851325
 21
214.7651115376595
  0
LINE
  5
87
100
AcDbEntity
  8
0
  6
ByLayer
 62
  256
370
   -1
100
AcDbLine
 10
34.23320732345644
 20
160.6521468289831
 11
13.72443107993547
 21
153.4244825501162
  0
LWPOLYLINE
  5
88
100
AcDbEntity
  8
0
  6
ByLayer
 62
  256
370
   -1
100
AcDbPolyline
 90
    8
 70
    1
 43
0
 10
94.5756210379087
 20
203.7651115376596
 10
94.57562103790843
 20
205.7651115376592
 42
-0.4142135623731325
 10
95.57562103790843
 20
206.7651115376594
 10
102.5756210379086
 20
206.7651115376594
 42
-0.414213562373095
 10
103.5756210379085
 20
205.7651115376595
 10
103.5756210379086
 20
203.7651115376595
 42
-0.41421356237312
 10
102.5756210379085
 20
202.7651115376595
 10
95.57562103790872
 20
202.7651115376597
 42
-0.4142135623730326
  0
LINE
  5
89
100
AcDbEntity
  8
0
  6
ByLayer
 62
  256
370
   -1
100
AcDbLine
 10
28.77749572114965
 20
211.7962833376822
 11
34.24564029105536
 21
209.8060414775721
  0
LINE
  5
8A
100
AcDbEntity
  8
0
  6
ByLayer
 62
  256
370
   -1
100
AcDbLine
 10
34.24564029105536
 20
209.8060414775721
 11
37.66584177527669
 21
219.2029678254563
  0
LWPOLYLINE
  5
8B
100
AcDbEntity
  8
0
  6
ByLayer
 62
  256
370
   -1
100
AcDbPolyline
 90
    8
 70
    1
 43
0
 10
102.5756210379085
 20
196.7651115376594
 10
95.57562103790879
 20
196.7651115376592
 42
0.41421356237312
 10
94.57562103790876
 20
195.7651115376592
 10
94.57562103790877
 20
193.7651115376595
 42
0.4142135623730909
 10
95.57562103790872
 20
192.7651115376594
 10
102.5756210379086
 20
192.7651115376594
 42
0.4142135623731159
 10
103.5756210379085
 20
193.7651115376594
 10
103.5756210379085
 20
195.7651115376594
 42
0.4142135623731367
  0
CIRCLE
  5
8C
100
AcDbEntity
  8
0
  6
ByLayer
 62
  256
370
   -1
100
AcDbCircle
 10
33.55124764763499
 20
172.8125599140615
 40
2.5
  0
ARC
  5
8D
100
AcDbEntity
  8
0
  6
ByLayer
 62
  256
370
   -1
100
AcDbCircle
 10
46.81704419696782
 20
222.7651115376591
 40
7.999999999999746
100
AcDbArc
 50
236.7149415984109
 51
270.0000000000018
  0
CIRCLE
  5
8E
100
AcDbEntity
  8
0
  6
ByLayer
 62
  256
370
   -1
100
AcDbCircle
 10
211.1634134424705
 20
204.7651115376594
 40
1.499999999999999
  0
LINE
  5
8F
100
AcDbEntity
  8
0
  6
ByLayer
 62
  256
370
   -1
100
AcDbLine
 10
34.23320732345644
 20
160.6521468289831
 11
13.72443107993547
 21
153.4244825501162
  0
ARC
  5
90
100
AcDbEntity
  8
0
  6
ByLayer
 62
  256
370
   -1
100
AcDbCircle
 10
392.8031157851326
 20
210.7651115376596
 40
3.99999999999995
100
AcDbArc
 50
0
 51
90.00000000000162
  0
ARC
  5
91
100
AcDbEntity
  8
0
  6
ByLayer
 62
  256
370
   -1
100
AcDbCircle
 10
392.8031157851326
 20
210.7651115376596
 40
3.99999999999995
100
AcDbArc
 50
0
 51
90.00000000000162
  0
LINE
  5
92
100
AcDbEntity
  8
0
  6
ByLayer
 62
  256
370
   -1
100
AcDbLine
 10
11.67648834204872
 20
164.8116515829716
 11
28.77749572114965
 21
211.7962833376822
  0
ARC
  5
93
100
AcDbEntity
  8
0
  6
ByLayer
 62
  256
370
   -1
100
AcDbCircle
 10
392.8031157851324
 20
198.7651115376598
 40
4.000000000000199
100
AcDbArc
 50
-89.99999999999837
 51
0
  0
CIRCLE
  5
94
100
AcDbEntity
  8
0
  6
ByLayer
 62
  256
370
   -1
100
AcDbCircle
 10
283.1634134424706
 20
204.7651115376597
 40
1.499999999999986
  0
LINE
  5
95
100
AcDbEntity
  8
0
  6
ByLayer
 62
  256
370
   -1
100
AcDbLine
 10
17.14463286994718
 20
162.821409738151
 11
11.67648834204872
 21
164.8116515829716
  0
LINE
  5
96
100
AcDbEntity
  8
0
  6
ByLayer
 62
  256
370
   -1
100
AcDbLine
 10
392.8031157851325
 20
194.7651115376595
 11
233.6620499947105
 21
194.7651115376594
  0
LINE
  5
97
100
AcDbEntity
  8
0
  6
ByLayer
 62
  256
370
   -1
100
AcDbLine
 10
396.8031157851327
 20
210.7651115376597
 11
396.8031157851325
 21
198.7651115376596
  0
LINE
  5
98
100
AcDbEntity
  8
0
  6
ByLayer
 62
  256
370
   -1
100
AcDbLine
 10
11.67648834204872
 20
164.8116515829716
 11
28.77749572114965
 21
211.7962833376822
  0
LINE
  5
99
100
AcDbEntity
  8
0
  6
ByLayer
 62
  256
370
   -1
100
AcDbLine
 10
37.66584177527669
 20
219.2029678254563
 11
42.42660549764761
 21
216.0775074803373
  0
LINE
  5
9A
100
AcDbEntity
  8
0
  6
ByLayer
 62
  256
370
   -1
100
AcDbLine
 10
34.24564029105536
 20
209.8060414775721
 11
37.66584177527669
 21
219.2029678254563
  0
LINE
  5
9B
100
AcDbEntity
  8
0
  6
ByLayer
 62
  256
370
   -1
100
AcDbLine
 10
28.77749572114965
 20
211.7962833376822
 11
34.24564029105536
 21
209.8060414775721
  0
LINE
  5
9C
100
AcDbEntity
  8
0
  6
ByLayer
 62
  256
370
   -1
100
AcDbLine
 10
37.66584177527669
 20
219.2029678254563
 11
42.42660549764761
 21
216.0775074803373
  0
LINE
  5
9D
100
AcDbEntity
  8
0
  6
ByLayer
 62
  256
370
   -1
100
AcDbLine
 10
680.9504926619137
 20
10.0000000000094
 11
678.0004926619138
 21
10.0000000000094
  0
LINE
  5
9E
100
AcDbEntity
  8
0
  6
ByLayer
 62
  256
370
   -1
100
AcDbLine
 10
678.0004926619138
 20
10.0000000000094
 11
678.0004926619138
 21
60.00000000000939
  0
LINE
  5
9F
100
AcDbEntity
  8
0
  6
ByLayer
 62
  256
370
   -1
100
AcDbLine
 10
678.0004926619138
 20
60.00000000000939
 11
680.9504926619137
 21
60.00000000000939
  0
LINE
  5
A0
100
AcDbEntity
  8
0
  6
ByLayer
 62
  256
370
   -1
100
AcDbLine
 10
683.9504926619138
 20
60.00000000000939
 11
683.9504926619138
 21
10.0000000000094
  0
LINE
  5
A1
100
AcDbEntity
  8
0
  6
ByLayer
 62
  256
370
   -1
100
AcDbLine
 10
683.9504926619138
 20
10.0000000000094
 11
680.9504926619137
 21
10.0000000000094
  0
LINE
  5
A2
100
AcDbEntity
  8
0
  6
ByLayer
 62
  256
370
   -1
100
AcDbLine
 10
19.04940367068576
 20
60.00000000000939
 11
16.04940367068565
 21
60.00000000000939
  0
LINE
  5
A3
100
AcDbEntity
  8
0
  6
ByLayer
 62
  256
370
   -1
100
AcDbLine
 10
16.04940367068565
 20
60.00000000000939
 11
16.04940367068565
 21
10.0000000000094
  0
LINE
  5
A4
100
AcDbEntity
  8
0
  6
ByLayer
 62
  256
370
   -1
100
AcDbLine
 10
19.04940367068576
 20
10.0000000000094
 11
21.99940367068564
 21
10.0000000000094
  0
LINE
  5
A5
100
AcDbEntity
  8
0
  6
ByLayer
 62
  256
370
   -1
100
AcDbLine
 10
21.99940367068564
 20
60.00000000000939
 11
19.04940367068576
 21
60.00000000000939
  0
LWPOLYLINE
  5
A6
100
AcDbEntity
  8
0
  6
ByLayer
 62
  256
370
   -1
100
AcDbPolyline
 90
    8
 70
    1
 43
0
 10
102.5756210379085
 20
202.7651115376595
 42
0.41421356237312
 10
103.5756210379086
 20
203.7651115376595
 10
103.5756210379085
 20
205.7651115376595
 42
0.414213562373095
 10
102.5756210379086
 20
206.7651115376594
 10
95.57562103790843
 20
206.7651115376594
 42
0.4142135623731325
 10
94.57562103790849
 20
205.7651115376592
 10
94.57562103790872
 20
203.7651115376596
 42
0.4142135623730284
 10
95.57562103790872
 20
202.7651115376597
  0
LWPOLYLINE
  5
A7
100
AcDbEntity
  8
0
  6
ByLayer
 62
  256
370
   -1
100
AcDbPolyline
 90
    8
 70
    1
 43
0
 10
415.575621037908
 20
175.7651115376595
 42
0.4142135623731117
 10
416.5756210379081
 20
176.7651115376595
 10
416.5756210379081
 20
178.7651115376592
 42
0.4142135623731034
 10
415.5756210379081
 20
179.7651115376593
 10
408.5756210379083
 20
179.7651115376593
 42
0.4142135623731283
 10
407.5756210379083
 20
178.7651115376593
 10
407.5756210379083
 20
176.7651115376593
 42
0.4142135623731117
 10
408.5756210379083
 20
175.7651115376593
  0
LWPOLYLINE
  5
A8
100
AcDbEntity
  8
0
  6
ByLayer
 62
  256
370
   -1
100
AcDbPolyline
 90
    8
 70
    1
 43
0
 10
94.5756210379087
 20
203.7651115376596
 10
94.57562103790843
 20
205.7651115376592
 42
-0.4142135623731325
 10
95.57562103790843
 20
206.7651115376594
 10
102.5756210379086
 20
206.7651115376594
 42
-0.414213562373095
 10
103.5756210379085
 20
205.7651115376595
 10
103.5756210379086
 20
203.7651115376595
 42
-0.41421356237312
 10
102.5756210379085
 20
202.7651115376595
 10
95.57562103790872
 20
202.7651115376597
 42
-0.4142135623730326
  0
LWPOLYLINE
  5
A9
100
AcDbEntity
  8
0
  6
ByLayer
 62
  256
370
   -1
100
AcDbPolyline
 90
    8
 70
    1
 43
0
 10
416.5756210379081
 20
178.7651115376592
 42
0.4142135623731034
 10
415.5756210379081
 20
179.7651115376593
 10
408.5756210379083
 20
179.7651115376593
 42
0.4142135623731283
 10
407.5756210379083
 20
178.7651115376593
 10
407.5756210379083
 20
176.7651115376593
 42
0.4142135623731117
 10
408.5756210379083
 20
175.7651115376593
 10
415.575621037908
 20
175.7651115376595
 42
0.4142135623731117
 10
416.5756210379081
 20
176.7651115376595
  0
LWPOLYLINE
  5
AA
100
AcDbEntity
  8
0
  6
ByLayer
 62
  256
370
   -1
100
AcDbPolyline
 90
    8
 70
    1
 43
0
 10
416.5756210379081
 20
168.7651115376591
 10
416.5756210379084
 20
166.7651115376595
 42
-0.4142135623731367
 10
415.5756210379084
 20
165.7651115376593
 10
408.5756210379083
 20
165.7651115376592
 42
-0.414213562373095
 10
407.5756210379083
 20
166.7651115376592
 10
407.5756210379083
 20
168.7651115376592
 42
-0.414213562373095
 10
408.5756210379083
 20
169.7651115376592
 10
415.5756210379081
 20
169.765111537659
 42
-0.4142135623730201
  0
LINE
  5
AB
100
AcDbEntity
  8
0
  6
ByLayer
 62
  256
370
   -1
100
AcDbLine
 10
37.66584177527669
 20
219.2029678254563
 11
42.42660549764761
 21
216.0775074803373
  0
LWPOLYLINE
  5
AC
100
AcDbEntity
  8
0
  6
ByLayer
 62
  256
370
   -1
100
AcDbPolyline
 90
   10
 70
    1
 43
0
 10
175.5756210379084
 20
211.7651115376593
 42
0.4142135623731283
 10
174.5756210379085
 20
210.7651115376592
 10
174.5756210379088
 20
204.7651115376594
 10
174.5756210379088
 20
198.7651115376594
 42
0.414213562373095
 10
175.5756210379087
 20
197.7651115376593
 10
182.5756210379086
 20
197.7651115376594
 42
0.414213562373095
 10
183.5756210379085
 20
198.7651115376594
 10
183.5756210379084
 20
204.7651115376594
 10
183.5756210379085
 20
210.7651115376595
 42
0.414213562373095
 10
182.5756210379086
 20
211.7651115376595
  0
LINE
  5
AD
100
AcDbEntity
  8
0
  6
ByLayer
 62
  256
370
   -1
100
AcDbLine
 10
34.23320732345644
 20
160.6521468289831
 11
13.72443107993547
 21
153.4244825501162
  0
LWPOLYLINE
  5
AE
100
AcDbEntity
  8
0
  6
ByLayer
 62
  256
370
   -1
100
AcDbPolyline
 90
    8
 70
    1
 43
0
 10
102.5756210379086
 20
192.7651115376594
 42
0.4142135623731159
 10
103.5756210379085
 20
193.7651115376594
 10
103.5756210379085
 20
195.7651115376594
 42
0.4142135623731367
 10
102.5756210379085
 20
196.7651115376594
 10
95.57562103790879
 20
196.7651115376592
 42
0.41421356237312
 10
94.57562103790876
 20
195.7651115376592
 10
94.57562103790877
 20
193.7651115376595
 42
0.4142135623730909
 10
95.57562103790872
 20
192.7651115376594
  0
LINE
  5
AF
100
AcDbEntity
  8
0
  6
ByLayer
 62
  256
370
   -1
100
AcDbLine
 10
34.24564029105536
 20
209.8060414775721
 11
37.66584177527669
 21
219.2029678254563
  0
LWPOLYLINE
  5
B0
100
AcDbEntity
  8
0
  6
ByLayer
 62
  256
370
   -1
100
AcDbPolyline
 90
    8
 70
    1
 43
0
 10
415.5756210379084
 20
165.7651115376593
 10
408.5756210379083
 20
165.7651115376592
 42
-0.414213562373095
 10
407.5756210379083
 20
166.7651115376592
 10
407.5756210379083
 20
168.7651115376592
 42
-0.414213562373095
 10
408.5756210379083
 20
169.7651115376592
 10
415.5756210379081
 20
169.765111537659
 42
-0.4142135623730201
 10
416.5756210379081
 20
168.7651115376591
 10
416.5756210379084
 20
166.7651115376595
 42
-0.4142135623731367
  0
LINE
  5
B1
100
AcDbEntity
  8
0
  6
ByLayer
 62
  256
370
   -1
100
AcDbLine
 10
13.72443107993547
 20
153.4244825501162
 11
17.14463286994718
 21
162.821409738151
  0
LINE
  5
B2
100
AcDbEntity
  8
0
  6
ByLayer
 62
  256
370
   -1
100
AcDbLine
 10
28.77749572114965
 20
211.7962833376822
 11
34.24564029105536
 21
209.8060414775721
  0
LINE
  5
B3
100
AcDbEntity
  8
0
  6
ByLayer
 62
  256
370
   -1
100
AcDbLine
 10
11.67648834204872
 20
164.8116515829716
 11
28.77749572114965
 21
211.7962833376822
  0
LWPOLYLINE
  5
B4
100
AcDbEntity
  8
0
  6
ByLayer
 62
  256
370
   -1
100
AcDbPolyline
 90
    8
 70
    1
 43
0
 10
94.57562103790877
 20
195.7651115376592
 10
94.57562103790877
 20
193.7651115376595
 42
0.4142135623730909
 10
95.57562103790872
 20
192.7651115376594
 10
102.5756210379086
 20
192.7651115376594
 42
0.4142135623731159
 10
103.5756210379085
 20
193.7651115376594
 10
103.5756210379085
 20
195.7651115376594
 42
0.4142135623731367
 10
102.5756210379085
 20
196.7651115376594
 10
95.57562103790879
 20
196.7651115376592
 42
0.41421356237312
  0
LWPOLYLINE
  5
B5
100
AcDbEntity
  8
0
  6
ByLayer
 62
  256
370
   -1
100
AcDbPolyline
 90
   10
 70
    1
 43
0
 10
183.5756210379084
 20
204.7651115376594
 10
183.5756210379085
 20
210.7651115376595
 42
0.414213562373095
 10
182.5756210379086
 20
211.7651115376595
 10
175.5756210379084
 20
211.7651115376593
 42
0.4142135623731283
 10
174.5756210379085
 20
210.7651115376592
 10
174.5756210379088
 20
204.7651115376594
 10
174.5756210379088
 20
198.7651115376594
 42
0.414213562373095
 10
175.5756210379087
 20
197.7651115376593
 10
182.5756210379086
 20
197.7651115376594
 42
0.414213562373095
 10
183.5756210379085
 20
198.7651115376594
  0
ARC
  5
B6
100
AcDbEntity
  8
0
  6
ByLayer
 62
  256
370
   -1
100
AcDbCircle
 10
46.81704419696782
 20
222.7651115376591
 40
7.999999999999746
100
AcDbArc
 50
236.7149415984109
 51
270.0000000000018
  0
LINE
  5
B7
100
AcDbEntity
  8
0
  6
ByLayer
 62
  256
370
   -1
100
AcDbLine
 10
17.14463286994718
 20
162.821409738151
 11
11.67648834204872
 21
164.8116515829716
  0
LINE
  5
B8
100
AcDbEntity
  8
0
  6
ByLayer
 62
  256
370
   -1
100
AcDbLine
 10
396.8031157851327
 20
210.7651115376597
 11
396.8031157851325
 21
198.7651115376596
  0
LINE
  5
B9
100
AcDbEntity
  8
0
  6
ByLayer
 62
  256
370
   -1
100
AcDbLine
 10
37.66584177527669
 20
219.2029678254563
 11
42.42660549764761
 21
216.0775074803373
  0
LINE
  5
BA
100
AcDbEntity
  8
0
  6
ByLayer
 62
  256
370
   -1
100
AcDbLine
 10
17.14463286994718
 20
162.821409738151
 11
11.67648834204872
 21
164.8116515829716
  0
LINE
  5
BB
100
AcDbEntity
  8
0
  6
ByLayer
 62
  256
370
   -1
100
AcDbLine
 10
11.67648834204872
 20
164.8116515829716
 11
28.77749572114965
 21
211.7962833376822
  0
LINE
  5
BC
100
AcDbEntity
  8
0
  6
ByLayer
 62
  256
370
   -1
100
AcDbLine
 10
34.23320732345644
 20
160.6521468289831
 11
13.72443107993547
 21
153.4244825501162
  0
LWPOLYLINE
  5
BD
100
AcDbEntity
  8
0
  6
ByLayer
 62
  256
370
   -1
100
AcDbPolyline
 90
   14
 70
    1
 43
0
 10
114.3481262906843
 20
173.7651115376591
 42
-0.4142135623730701
 10
118.3481262906844
 20
177.7651115376591
 10
277.489192081106
 20
177.7651115376592
 42
0.08491003491472116
 10
476.9180347523601
 20
211.8780762463354
 10
497.4268109958814
 20
219.1057405252024
 10
494.0066092058697
 20
209.7088133371676
 10
499.4747537337681
 20
207.718571492347
 10
482.3737463546672
 20
160.7339397376365
 10
476.9056017847615
 20
162.7241815977466
 10
473.4854003005401
 20
153.3272552498623
 10
468.7246365781692
 20
156.4527155949814
 42
0.146263279577737
 10
464.3341978788487
 20
157.7651115376594
 10
118.3481262906844
 20
157.7651115376591
 42
-0.4142135623730992
 10
114.3481262906842
 20
161.765111537659
  0
LINE
  5
BE
100
AcDbEntity
  8
0
  6
ByLayer
 62
  256
370
   -1
100
AcDbLine
 10
34.24564029105536
 20
209.8060414775721
 11
37.66584177527669
 21
219.2029678254563
  0
LWPOLYLINE
  5
BF
100
AcDbEntity
  8
0
  6
ByLayer
 62
  256
370
   -1
100
AcDbPolyline
 90
    8
 70
    1
 43
0
 10
696.9998963325995
 20
136.475
 10
3.000000000000025
 20
136.475
 42
0.414213562373094
 10
0
 20
133.475
 10
4.440892098500626e-16
 20
3.000000000000006
 42
0.4142135623730966
 10
2.999999999999989
 20
0
 10
696.9998963325995
 20
4.440892098500626e-16
 42
0.414213562373094
 10
699.9998963325995
 20
2.999999999999997
 10
699.9998963325995
 20
133.475
 42
0.414213562373095
  0
CIRCLE
  5
C0
100
AcDbEntity
  8
0
  6
ByLayer
 62
  256
370
   -1
100
AcDbCircle
 10
666.0500009410084
 20
13.0000065267086
 40
2.500000000000022
  0
LINE
  5
C1
100
AcDbEntity
  8
0
  6
ByLayer
 62
  256
370
   -1
100
AcDbLine
 10
680.9504926619137
 20
60.00000000000939
 11
683.9504926619138
 21
60.00000000000939
  0
LINE
  5
C2
100
AcDbEntity
  8
0
  6
ByLayer
 62
  256
370
   -1
100
AcDbLine
 10
46.81704419696807
 20
214.7651115376593
 11
392.8031157851325
 21
214.7651115376595
  0
CIRCLE
  5
C3
100
AcDbEntity
  8
0
  6
ByLayer
 62
  256
370
   -1
100
AcDbCircle
 10
666.0500009410084
 20
45.00000581145287
 40
2.500000000000012
  0
LINE
  5
C4
100
AcDbEntity
  8
0
  6
ByLayer
 62
  256
370
   -1
100
AcDbLine
 10
464.3341978788487
 20
157.7651115376594
 11
118.3481262906844
 21
157.7651115376591
  0
CIRCLE
  5
C5
100
AcDbEntity
  8
0
  6
ByLayer
 62
  256
370
   -1
100
AcDbCircle
 10
593.525
 20
60.37500204145907
 40
1.5
  0
LWPOLYLINE
  5
C6
100
AcDbEntity
  8
0
  6
ByLayer
 62
  256
370
   -1
100
AcDbPolyline
 90
   10
 70
    1
 43
0
 10
327.5756210379085
 20
167.7651115376592
 10
327.5756210379083
 20
161.7651115376592
 42
0.4142135623731034
 10
328.5756210379083
 20
160.7651115376592
 10
335.5756210379084
 20
160.7651115376594
 42
0.4142135623731117
 10
336.5756210379083
 20
161.7651115376594
 10
336.5756210379081
 20
167.7651115376593
 10
336.5756210379081
 20
173.7651115376592
 42
0.4142135623731034
 10
335.5756210379081
 20
174.7651115376593
 10
328.5756210379083
 20
174.7651115376592
 42
0.4142135623731117
 10
327.5756210379083
 20
173.7651115376593
  0
LINE
  5
C7
100
AcDbEntity
  8
0
  6
ByLayer
 62
  256
370
   -1
100
AcDbLine
 10
21.99940367068564
 20
10.0000000000094
 11
21.99940367068564
 21
60.00000000000939
  0
LINE
  5
C8
100
AcDbEntity
  8
0
  6
ByLayer
 62
  256
370
   -1
100
AcDbLine
 10
28.77749572114965
 20
211.7962833376822
 11
34.24564029105536
 21
209.8060414775721
  0
CIRCLE
  5
C9
100
AcDbEntity
  8
0
  6
ByLayer
 62
  256
370
   -1
100
AcDbCircle
 10
44.49588815160723
 20
202.8827141965763
 40
2.499999999999997
  0
LWPOLYLINE
  5
CA
100
AcDbEntity
  8
0
  6
ByLayer
 62
  256
370
   -1
100
AcDbPolyline
 90
   10
 70
    1
 43
0
 10
335.5756210379084
 20
160.7651115376594
 42
0.4142135623731117
 10
336.5756210379083
 20
161.7651115376594
 10
336.5756210379081
 20
167.7651115376593
 10
336.5756210379081
 20
173.7651115376592
 42
0.4142135623731034
 10
335.5756210379081
 20
174.7651115376593
 10
328.5756210379083
 20
174.7651115376592
 42
0.4142135623731117
 10
327.5756210379083
 20
173.7651115376593
 10
327.5756210379085
 20
167.7651115376592
 10
327.5756210379083
 20
161.7651115376592
 42
0.4142135623731034
 10
328.5756210379083
 20
160.7651115376592
  0
LINE
  5
CB
100
AcDbEntity
  8
0
  6
ByLayer
 62
  256
370
   -1
100
AcDbLine
 10
494.0066092058697
 20
209.7088133371676
 11
499.4747537337681
 21
207.718571492347
  0
LINE
  5
CC
100
AcDbEntity
  8
0
  6
ByLayer
 62
  256
370
   -1
100
AcDbLine
 10
13.72443107993547
 20
153.4244825501162
 11
17.14463286994718
 21
162.821409738151
  0
LINE
  5
CD
100
AcDbEntity
  8
0
  6
ByLayer
 62
  256
370
   -1
100
AcDbLine
 10
497.4268109958814
 20
219.1057405252024
 11
494.0066092058697
 21
209.7088133371676
  0
LINE
  5
CE
100
AcDbEntity
  8
0
  6
ByLayer
 62
  256
370
   -1
100
AcDbLine
 10
476.9056017847615
 20
162.7241815977466
 11
473.4854003005401
 21
153.3272552498623
  0
CIRCLE
  5
CF
100
AcDbEntity
  8
0
  6
ByLayer
 62
  256
370
   -1
100
AcDbCircle
 10
355.1634134424706
 20
204.7651115376597
 40
1.499999999999981
  0
ARC
  5
D0
100
AcDbEntity
  8
0
  6
ByLayer
 62
  256
370
   -1
100
AcDbCircle
 10
464.334197878849
 20
149.7651115376596
 40
7.999999999999746
100
AcDbArc
 50
56.71494159841092
 51
90.00000000000203
  0
ARC
  5
D1
100
AcDbEntity
  8
0
  6
ByLayer
 62
  256
370
   -1
100
AcDbCircle
 10
392.8031157851324
 20
198.7651115376598
 40
4.000000000000199
100
AcDbArc
 50
-89.99999999999837
 51
0
  0
ARC
  5
D2
100
AcDbEntity
  8
0
  6
ByLayer
 62
  256
370
   -1
100
AcDbCircle
 10
46.81704419696782
 20
222.7651115376591
 40
7.999999999999746
100
AcDbArc
 50
236.7149415984109
 51
270.0000000000018
  0
CIRCLE
  5
D3
100
AcDbEntity
  8
0
  6
ByLayer
 62
  256
370
   -1
100
AcDbCircle
 10
350.0018963325995
 20
117.225
 40
1.50000000000001
  0
ARC
  5
D4
100
AcDbEntity
  8
0
  6
ByLayer
 62
  256
370
   -1
100
AcDbCircle
 10
233.662049994712
 20
-405.2348884623464
 40
600.0000000000058
100
AcDbArc
 50
90.00000000000014
 51
109.4133809419463
  0
CIRCLE
  5
D5
100
AcDbEntity
  8
0
  6
ByLayer
 62
  256
370
   -1
100
AcDbCircle
 10
106.475
 20
60.37500204145907
 40
1.5
  0
CIRCLE
  5
D6
100
AcDbEntity
  8
0
  6
ByLayer
 62
  256
370
   -1
100
AcDbCircle
 10
105.0018963325995
 20
4.225
 40
1.499999999999986
  0
CIRCLE
  5
D7
100
AcDbEntity
  8
0
  6
ByLayer
 62
  256
370
   -1
100
AcDbCircle
 10
350.0018963325995
 20
4.225
 40
1.499999999999986
  0
CIRCLE
  5
D8
100
AcDbEntity
  8
0
  6
ByLayer
 62
  256
370
   -1
100
AcDbCircle
 10
595.2018963325995
 20
4.225
 40
1.499999999999986
  0
LINE
  5
D9
100
AcDbEntity
  8
0
  6
ByLayer
 62
  256
370
   -1
100
AcDbLine
 10
476.9180347523604
 20
211.8780762463355
 11
497.4268109958814
 21
219.1057405252024
  0
CIRCLE
  5
DA
100
AcDbEntity
  8
0
  6
ByLayer
 62
  256
370
   -1
100
AcDbCircle
 10
33.94989539159099
 20
13.0000065267086
 40
2.500000000000022
  0
CIRCLE
  5
DB
100
AcDbEntity
  8
0
  6
ByLayer
 62
  256
370
   -1
100
AcDbCircle
 10
299.9878286333463
 20
167.7651115376592
 40
1.499999999999999
  0
ARC
  5
DC
100
AcDbEntity
  8
0
  6
ByLayer
 62
  256
370
   -1
100
AcDbCircle
 10
118.3481262906842
 20
161.765111537659
 40
3.999999999999986
100
AcDbArc
 50
-180
 51
-89.99999999999797
  0
LINE
  5
DD
100
AcDbEntity
  8
0
  6
ByLayer
 62
  256
370
   -1
100
AcDbLine
 10
499.4747537337681
 20
207.718571492347
 11
482.3737463546672
 21
160.7339397376365
  0
LINE
  5
DE
100
AcDbEntity
  8
0
  6
ByLayer
 62
  256
370
   -1
100
AcDbLine
 10
16.04940367068565
 20
10.0000000000094
 11
19.04940367068576
 21
10.0000000000094
  0
LINE
  5
DF
100
AcDbEntity
  8
0
  6
ByLayer
 62
  256
370
   -1
100
AcDbLine
 10
473.4854003005401
 20
153.3272552498623
 11
468.7246365781692
 21
156.4527155949814
  0
CIRCLE
  5
E0
100
AcDbEntity
  8
0
  6
ByLayer
 62
  256
370
   -1
100
AcDbCircle
 10
227.9878286333463
 20
167.765111537659
 40
1.499999999999986
  0
CIRCLE
  5
E1
100
AcDbEntity
  8
0
  6
ByLayer
 62
  256
370
   -1
100
AcDbCircle
 10
131.0018963325995
 20
123.225
 40
1.499999999999968
  0
LINE
  5
E2
100
AcDbEntity
  8
0
  6
ByLayer
 62
  256
370
   -1
100
AcDbLine
 10
114.3481262906842
 20
161.765111537659
 11
114.3481262906843
 21
173.7651115376591
  0
ARC
  5
E3
100
AcDbEntity
  8
0
  6
ByLayer
 62
  256
370
   -1
100
AcDbCircle
 10
118.3481262906845
 20
173.7651115376589
 40
4.000000000000199
100
AcDbArc
 50
90.00000000000205
 51
180
  0
CIRCLE
  5
E4
100
AcDbEntity
  8
0
  6
ByLayer
 62
  256
370
   -1
100
AcDbCircle
 10
155.9878286333462
 20
167.765111537659
 40
1.499999999999981
  0
LINE
  5
E5
100
AcDbEntity
  8
0
  6
ByLayer
 62
  256
370
   -1
100
AcDbLine
 10
482.3737463546672
 20
160.7339397376365
 11
476.9056017847615
 21
162.7241815977466
  0
CIRCLE
  5
E6
100
AcDbEntity
  8
0
  6
ByLayer
 62
  256
370
   -1
100
AcDbCircle
 10
466.6553539242096
 20
169.6475088787424
 40
2.499999999999997
  0
CIRCLE
  5
E7
100
AcDbEntity
  8
0
  6
ByLayer
 62
  256
370
   -1
100
AcDbCircle
 10
33.94989539159099
 20
45.00000581145287
 40
2.500000000000012
  0
CIRCLE
  5
E8
100
AcDbEntity
  8
0
  6
ByLayer
 62
  256
370
   -1
100
AcDbCircle
 10
569.2018963325995
 20
123.225
 40
1.499999999999968
  0
LWPOLYLINE
  5
E9
100
AcDbEntity
  8
0
  6
ByLayer
 62
  256
370
   -1
100
AcDbPolyline
 90
   14
 70
    1
 43
0
 10
40.63475296517851
 20
-12.17337259590963
 10
386.6208245533429
 20
-12.17337259590927
 42
-0.4142135623731034
 10
390.6208245533431
 20
-16.17337259590919
 10
390.620824553343
 20
-28.17337259590925
 42
-0.4142135623730688
 10
386.6208245533429
 20
-32.17337259590934
 10
227.479758762921
 20
-32.17337259590954
 42
0.08491003491472138
 10
28.05091609166683
 20
-66.2863373045858
 10
7.542139848145908
 20
-73.51400158345271
 10
10.96234163815764
 20
-64.11707439541793
 10
5.494197110259194
 20
-62.1268325505973
 10
22.59520448936007
 20
-15.14220079588679
 10
28.0633490592658
 20
-17.13244265599691
 10
31.48355054348711
 20
-7.735516308112622
 10
36.24431426585804
 20
-10.8609766532317
 42
0.1462632795777366
  0
LWPOLYLINE
  5
EA
100
AcDbEntity
  8
0
  6
ByLayer
 62
  256
370
   -1
100
AcDbPolyline
 90
   14
 70
    1
 43
0
 10
112.1658350588948
 20
-49.1733725959098
 10
271.3069008493169
 20
-49.17337259590965
 42
0.08491003491472116
 10
470.7357435205707
 20
-15.06040788723328
 10
491.2445197640918
 20
-7.832743608366357
 10
487.8243179740801
 20
-17.22967079640114
 10
493.2924625019785
 20
-19.21991264122177
 10
476.1914551228776
 20
-66.20454439593239
 10
470.723310552972
 20
-64.21430253582216
 10
467.3031090687506
 20
-73.61122888370652
 10
462.5423453463798
 20
-70.48576853858734
 42
0.146263279577737
 10
458.1519066470591
 20
-69.17337259590946
 10
112.1658350588948
 20
-69.1733725959098
 42
-0.4142135623731034
 10
108.1658350588946
 20
-65.17337259590988
 10
108.1658350588948
 20
-53.17337259590985
 42
-0.4142135623730679
  0
LWPOLYLINE
  5
EB
100
AcDbEntity
  8
0
  6
ByLayer
 62
  256
370
   -1
100
AcDbPolyline
 90
    8
 70
    1
 43
0
 10
96.39332980611896
 20
-24.17337259590941
 42
0.4142135623731096
 10
97.39332980611898
 20
-23.1733725959095
 10
97.39332980611897
 20
-21.17337259590947
 42
0.4142135623730971
 10
96.39332980611903
 20
-20.17337259590949
 10
89.39332980611887
 20
-20.17337259590956
 42
0.4142135623731387
 10
88.39332980611891
 20
-21.17337259590972
 10
88.39332980611913
 20
-23.17337259590932
 42
0.4142135623730472
 10
89.39332980611916
 20
-24.17337259590926
  0
LWPOLYLINE
  5
EC
100
AcDbEntity
  8
0
  6
ByLayer
 62
  256
370
   -1
100
AcDbPolyline
 90
    8
 70
    1
 43
0
 10
409.3933298061185
 20
-51.17337259590933
 42
0.4142135623731034
 10
410.3933298061185
 20
-50.17337259590938
 10
410.3933298061185
 20
-48.17337259590964
 42
0.4142135623730992
 10
409.3933298061186
 20
-47.17337259590956
 10
402.3933298061187
 20
-47.17337259590956
 42
0.4142135623730846
 10
401.3933298061187
 20
-48.1733725959095
 10
401.3933298061187
 20
-50.17337259590953
 42
0.414213562373147
 10
402.3933298061187
 20
-51.17337259590968
  0
LWPOLYLINE
  5
ED
100
AcDbEntity
  8
0
  6
ByLayer
 62
  256
370
   -1
100
AcDbPolyline
 90
    8
 70
    1
 43
0
 10
88.39332980611913
 20
-23.17337259590932
 10
88.39332980611884
 20
-21.17337259590972
 42
-0.4142135623731408
 10
89.39332980611887
 20
-20.17337259590956
 10
96.39332980611903
 20
-20.17337259590946
 42
-0.4142135623730981
 10
97.39332980611897
 20
-21.17337259590947
 10
97.39332980611898
 20
-23.1733725959095
 42
-0.4142135623731096
 10
96.39332980611896
 20
-24.17337259590941
 10
89.39332980611916
 20
-24.1733725959093
 42
-0.4142135623730472
  0
LWPOLYLINE
  5
EE
100
AcDbEntity
  8
0
  6
ByLayer
 62
  256
370
   -1
100
AcDbPolyline
 90
    8
 70
    1
 43
0
 10
410.3933298061185
 20
-48.17337259590964
 42
0.4142135623730992
 10
409.3933298061186
 20
-47.17337259590956
 10
402.3933298061187
 20
-47.17337259590956
 42
0.4142135623730846
 10
401.3933298061187
 20
-48.1733725959095
 10
401.3933298061187
 20
-50.17337259590953
 42
0.414213562373147
 10
402.3933298061187
 20
-51.17337259590968
 10
409.3933298061185
 20
-51.17337259590933
 42
0.4142135623731034
 10
410.3933298061185
 20
-50.17337259590938
  0
LWPOLYLINE
  5
EF
100
AcDbEntity
  8
0
  6
ByLayer
 62
  256
370
   -1
100
AcDbPolyline
 90
    8
 70
    1
 43
0
 10
410.3933298061185
 20
-58.17337259590971
 10
410.393329806119
 20
-60.17337259590938
 42
-0.4142135623731262
 10
409.3933298061189
 20
-61.17337259590947
 10
402.3933298061187
 20
-61.17337259590961
 42
-0.4142135623731159
 10
401.3933298061187
 20
-60.1733725959096
 10
401.3933298061187
 20
-58.17337259590964
 42
-0.4142135623730971
 10
402.3933298061187
 20
-57.17337259590963
 10
409.3933298061185
 20
-57.17337259590991
 42
-0.4142135623729993
  0
LWPOLYLINE
  5
F0
100
AcDbEntity
  8
0
  6
ByLayer
 62
  256
370
   -1
100
AcDbPolyline
 90
   14
 70
    1
 43
0
 10
31.48355054348711
 20
-7.735516308112622
 10
36.24431426585804
 20
-10.8609766532317
 42
0.1462632795777366
 10
40.63475296517851
 20
-12.17337259590963
 10
386.6208245533429
 20
-12.17337259590927
 42
-0.4142135623731034
 10
390.6208245533431
 20
-16.17337259590919
 10
390.620824553343
 20
-28.17337259590925
 42
-0.4142135623730688
 10
386.6208245533429
 20
-32.17337259590934
 10
227.479758762921
 20
-32.17337259590954
 42
0.08491003491472138
 10
28.05091609166683
 20
-66.2863373045858
 10
7.542139848145908
 20
-73.51400158345271
 10
10.96234163815764
 20
-64.11707439541793
 10
5.494197110259194
 20
-62.1268325505973
 10
22.59520448936007
 20
-15.14220079588679
 10
28.0633490592658
 20
-17.13244265599691
  0
LWPOLYLINE
  5
F1
100
AcDbEntity
  8
0
  6
ByLayer
 62
  256
370
   -1
100
AcDbPolyline
 90
   10
 70
    1
 43
0
 10
169.3933298061188
 20
-15.1733725959096
 42
0.4142135623731273
 10
168.3933298061189
 20
-16.17337259590968
 10
168.3933298061192
 20
-22.17337259590952
 10
168.3933298061192
 20
-28.17337259590943
 42
0.4142135623730929
 10
169.3933298061191
 20
-29.17337259590958
 10
176.393329806119
 20
-29.17337259590951
 42
0.4142135623731148
 10
177.393329806119
 20
-28.17337259590953
 10
177.3933298061188
 20
-22.17337259590948
 10
177.393329806119
 20
-16.17337259590943
 42
0.4142135623730919
 10
176.393329806119
 20
-15.17337259590946
  0
LWPOLYLINE
  5
F2
100
AcDbEntity
  8
0
  6
ByLayer
 62
  256
370
   -1
100
AcDbPolyline
 90
    8
 70
    1
 43
0
 10
96.39332980611906
 20
-34.17337259590955
 42
0.4142135623731137
 10
97.393329806119
 20
-33.17337259590957
 10
97.39332980611898
 20
-31.17337259590951
 42
0.414213562373146
 10
96.39332980611897
 20
-30.17337259590949
 10
89.3933298061192
 20
-30.1733725959097
 42
0.4142135623731159
 10
88.39332980611917
 20
-31.17337259590972
 10
88.39332980611924
 20
-33.1733725959095
 42
0.4142135623730825
 10
89.39332980611916
 20
-34.17337259590952
  0
LWPOLYLINE
  5
F3
100
AcDbEntity
  8
0
  6
ByLayer
 62
  256
370
   -1
100
AcDbPolyline
 90
    8
 70
    1
 43
0
 10
409.3933298061189
 20
-61.17337259590947
 10
402.3933298061187
 20
-61.17337259590961
 42
-0.4142135623731159
 10
401.3933298061187
 20
-60.1733725959096
 10
401.3933298061187
 20
-58.17337259590964
 42
-0.4142135623730971
 10
402.3933298061187
 20
-57.17337259590963
 10
409.3933298061185
 20
-57.17337259590991
 42
-0.4142135623729993
 10
410.3933298061184
 20
-58.17337259590971
 10
410.393329806119
 20
-60.17337259590938
 42
-0.4142135623731262
  0
LWPOLYLINE
  5
F4
100
AcDbEntity
  8
0
  6
ByLayer
 62
  256
370
   -1
100
AcDbPolyline
 90
    8
 70
    1
 43
0
 10
88.39332980611917
 20
-31.17337259590972
 10
88.39332980611924
 20
-33.1733725959095
 42
0.4142135623730825
 10
89.39332980611916
 20
-34.17337259590952
 10
96.39332980611906
 20
-34.17337259590955
 42
0.4142135623731137
 10
97.393329806119
 20
-33.17337259590957
 10
97.39332980611898
 20
-31.17337259590951
 42
0.414213562373146
 10
96.39332980611897
 20
-30.17337259590949
 10
89.3933298061192
 20
-30.1733725959097
 42
0.4142135623731159
  0
LWPOLYLINE
  5
F5
100
AcDbEntity
  8
0
  6
ByLayer
 62
  256
370
   -1
100
AcDbPolyline
 90
   10
 70
    1
 43
0
 10
177.3933298061188
 20
-22.17337259590948
 10
177.393329806119
 20
-16.17337259590943
 42
0.4142135623730919
 10
176.393329806119
 20
-15.17337259590946
 10
169.3933298061188
 20
-15.1733725959096
 42
0.4142135623731273
 10
168.3933298061189
 20
-16.17337259590968
 10
168.3933298061192
 20
-22.17337259590952
 10
168.3933298061192
 20
-28.17337259590943
 42
0.4142135623730929
 10
169.3933298061191
 20
-29.17337259590958
 10
176.393329806119
 20
-29.17337259590951
 42
0.4142135623731148
 10
177.393329806119
 20
-28.17337259590953
  0
LWPOLYLINE
  5
F6
100
AcDbEntity
  8
0
  6
ByLayer
 62
  256
370
   -1
100
AcDbPolyline
 90
   14
 70
    1
 43
0
 10
108.1658350588948
 20
-53.17337259590985
 42
-0.4142135623730679
 10
112.1658350588948
 20
-49.1733725959098
 10
271.3069008493169
 20
-49.17337259590965
 42
0.08491003491472116
 10
470.7357435205707
 20
-15.06040788723328
 10
491.2445197640918
 20
-7.832743608366357
 10
487.8243179740801
 20
-17.22967079640114
 10
493.2924625019785
 20
-19.21991264122177
 10
476.1914551228776
 20
-66.20454439593239
 10
470.723310552972
 20
-64.21430253582216
 10
467.3031090687506
 20
-73.61122888370652
 10
462.5423453463798
 20
-70.48576853858734
 42
0.146263279577737
 10
458.1519066470591
 20
-69.17337259590946
 10
112.1658350588948
 20
-69.1733725959098
 42
-0.4142135623731034
 10
108.1658350588946
 20
-65.17337259590988
  0
LWPOLYLINE
  5
F7
100
AcDbEntity
  8
0
  6
ByLayer
 62
  256
370
   -1
100
AcDbPolyline
 90
    8
 70
    1
 43
0
 10
696.9998963325995
 20
-83.52499999999999
 10
3.000000000000025
 20
-83.52499999999999
 42
0.4142135623730955
 10
-4.440892098500626e-16
 20
-86.52500000000003
 10
1.332267629550188e-15
 20
-217
 42
0.4142135623730932
 10
2.999999999999989
 20
-220
 10
696.9998963325995
 20
-220
 42
0.4142135623730893
 10
699.9998963325995
 20
-217
 10
699.9998963325995
 20
-86.52500000000003
 42
0.4142135623731018
  0
LWPOLYLINE
  5
F8
100
AcDbEntity
  8
0
  6
ByLayer
 62
  256
370
   -1
100
AcDbPolyline
 90
    6
 70
    1
 43
0
 10
683.9504926619138
 20
-159.9999999999906
 10
683.9504926619138
 20
-209.9999999999906
 10
680.9504926619137
 20
-209.9999999999906
 10
678.0004926619138
 20
-209.9999999999906
 10
678.0004926619138
 20
-159.9999999999906
 10
680.9504926619137
 20
-159.9999999999906
  0
LWPOLYLINE
  5
F9
100
AcDbEntity
  8
0
  6
ByLayer
 62
  256
370
   -1
100
AcDbPolyline
 90
   10
 70
    1
 43
0
 10
321.3933298061189
 20
-59.17337259590958
 10
321.3933298061187
 20
-65.17337259590967
 42
0.4142135623731242
 10
322.3933298061187
 20
-66.17337259590963
 10
329.3933298061188
 20
-66.17337259590946
 42
0.4142135623731533
 10
330.3933298061188
 20
-65.17337259590938
 10
330.3933298061185
 20
-59.17337259590958
 10
330.3933298061186
 20
-53.17337259590964
 42
0.4142135623730888
 10
329.3933298061186
 20
-52.17337259590956
 10
322.3933298061187
 20
-52.17337259590956
 42
0.4142135623731117
 10
321.3933298061187
 20
-53.1733725959095
  0
LWPOLYLINE
  5
FA
100
AcDbEntity
  8
0
  6
ByLayer
 62
  256
370
   -1
100
AcDbPolyline
 90
    6
 70
    1
 43
0
 10
21.99940367068564
 20
-209.9999999999906
 10
21.99940367068564
 20
-159.9999999999906
 10
19.04940367068576
 20
-159.9999999999906
 10
16.04940367068565
 20
-159.9999999999906
 10
16.04940367068565
 20
-209.9999999999906
 10
19.04940367068576
 20
-209.9999999999906
  0
LWPOLYLINE
  5
FB
100
AcDbEntity
  8
0
  6
ByLayer
 62
  256
370
   -1
100
AcDbPolyline
 90
   10
 70
    1
 43
0
 10
329.3933298061188
 20
-66.17337259590946
 42
0.4142135623731533
 10
330.3933298061188
 20
-65.17337259590938
 10
330.3933298061185
 20
-59.17337259590958
 10
330.3933298061186
 20
-53.17337259590964
 42
0.4142135623730888
 10
329.3933298061186
 20
-52.17337259590956
 10
322.3933298061187
 20
-52.17337259590956
 42
0.4142135623731117
 10
321.3933298061187
 20
-53.1733725959095
 10
321.3933298061189
 20
-59.17337259590958
 10
321.3933298061187
 20
-65.17337259590967
 42
0.4142135623731242
 10
322.3933298061187
 20
-66.17337259590963
  0
LWPOLYLINE
  5
FC
100
AcDbEntity
  8
0
  6
ByLayer
 62
  256
370
   -1
100
AcDbPolyline
 90
    6
 70
    1
 43
0
 10
39.11564349677998
 20
-28.6044021074057
 10
42.65385122034763
 20
-25.63549331153148
 10
41.85180464338531
 20
-21.08686114111848
 10
37.51155034285533
 20
-19.5071377665797
 10
33.97334261928768
 20
-22.4760465624539
 10
34.77538919625001
 20
-27.02467873286693
  0
LWPOLYLINE
  5
FD
100
AcDbEntity
  8
0
  6
ByLayer
 62
  256
370
   -1
100
AcDbPolyline
 90
    6
 70
    1
 43
0
 10
28.17100299280771
 20
-58.67455638992055
 10
31.70921071637537
 20
-55.70564759404633
 10
30.90716413941305
 20
-51.15701542363325
 10
26.56690983888307
 20
-49.57729204909455
 10
23.02870211531541
 20
-52.54620084496878
 10
23.83074869227773
 20
-57.09483301538178
  0
LWPOLYLINE
  5
FE
100
AcDbEntity
  8
0
  6
ByLayer
 62
  256
370
   -1
100
AcDbPolyline
 90
    6
 70
    1
 43
0
 10
461.2751092693823
 20
-61.83960742523936
 10
464.81331699295
 20
-58.87069862936514
 10
464.0112704159877
 20
-54.32206645895214
 10
459.6710161154577
 20
-52.74234308441336
 10
456.13280839189
 20
-55.71125188028759
 10
456.9348549688523
 20
-60.25988405070059
  0
LWPOLYLINE
  5
FF
100
AcDbEntity
  8
0
  6
ByLayer
 62
  256
370
   -1
100
AcDbPolyline
 90
    6
 70
    1
 43
0
 10
472.2197497733546
 20
-31.76945314272462
 10
475.7579574969224
 20
-28.80054434685039
 10
474.95591091996
 20
-24.25191217643736
 10
470.61565661943
 20
-22.67218880189859
 10
467.0774488958624
 20
-25.64109759777281
 10
467.8794954728247
 20
-30.18972976818581
  0
LWPOLYLINE
  5
100
100
AcDbEntity
  8
0
  6
ByLayer
 62
  256
370
   -1
100
AcDbPolyline
 90
    6
 70
    1
 43
0
 10
206.5688354509524
 20
-24.92337259590943
 10
208.1565486912238
 20
-22.17337259590945
 10
206.5688354509524
 20
-19.42337259590946
 10
203.3934089704094
 20
-19.42337259590946
 10
201.805695730138
 20
-22.17337259590945
 10
203.3934089704094
 20
-24.92337259590943
  0
LWPOLYLINE
  5
101
100
AcDbEntity
  8
0
  6
ByLayer
 62
  256
370
   -1
100
AcDbPolyline
 90
    6
 70
    1
 43
0
 10
278.5688354509525
 20
-24.92337259590922
 10
280.1565486912239
 20
-22.17337259590924
 10
278.5688354509525
 20
-19.42337259590925
 10
275.3934089704096
 20
-19.42337259590925
 10
273.8056957301381
 20
-22.17337259590924
 10
275.3934089704096
 20
-24.92337259590922
  0
LWPOLYLINE
  5
102
100
AcDbEntity
  8
0
  6
ByLayer
 62
  256
370
   -1
100
AcDbPolyline
 90
    6
 70
    1
 43
0
 10
350.5688354509526
 20
-24.92337259590943
 10
352.1565486912243
 20
-22.17337259590924
 10
350.5688354509527
 20
-19.423372595909
 10
347.3934089704095
 20
-19.42337259590897
 10
345.8056957301378
 20
-22.17337259590916
 10
347.3934089704094
 20
-24.9233725959094
  0
LWPOLYLINE
  5
103
100
AcDbEntity
  8
0
  6
ByLayer
 62
  256
370
   -1
100
AcDbPolyline
 90
    6
 70
    1
 43
0
 10
295.3932506418283
 20
-61.92337259590957
 10
296.9809638820998
 20
-59.17337259590958
 10
295.3932506418283
 20
-56.4233725959096
 10
292.2178241612854
 20
-56.4233725959096
 10
290.6301109210139
 20
-59.17337259590958
 10
292.2178241612854
 20
-61.92337259590957
  0
LWPOLYLINE
  5
104
100
AcDbEntity
  8
0
  6
ByLayer
 62
  256
370
   -1
100
AcDbPolyline
 90
    6
 70
    1
 43
0
 10
223.3932506418279
 20
-61.92337259590957
 10
224.9809638820992
 20
-59.17337259590994
 10
223.3932506418279
 20
-56.42337259591031
 10
220.2178241612854
 20
-56.42337259591031
 10
218.6301109210142
 20
-59.17337259590994
 10
220.2178241612854
 20
-61.92337259590957
  0
LWPOLYLINE
  5
105
100
AcDbEntity
  8
0
  6
ByLayer
 62
  256
370
   -1
100
AcDbPolyline
 90
    6
 70
    1
 43
0
 10
151.3932506418279
 20
-61.92337259590957
 10
152.9809638820991
 20
-59.17337259591001
 10
151.3932506418279
 20
-56.42337259591045
 10
148.2178241612854
 20
-56.42337259591045
 10
146.6301109210142
 20
-59.17337259591001
 10
148.2178241612854
 20
-61.92337259590957
  0
LWPOLYLINE
  5
106
100
AcDbEntity
  8
0
  6
ByLayer
 62
  256
370
   -1
100
AcDbPolyline
 90
    6
 70
    1
 43
0
 10
351.5896095728709
 20
-105.525
 10
353.1773228131424
 20
-102.775
 10
351.589609572871
 20
-100.025
 10
348.4141830923281
 20
-100.025
 10
346.8264698520566
 20
-102.775
 10
348.414183092328
 20
-105.525
  0
LWPOLYLINE
  5
107
100
AcDbEntity
  8
0
  6
ByLayer
 62
  256
370
   -1
100
AcDbPolyline
 90
    6
 70
    1
 43
0
 10
348.4141830923281
 20
-213.025
 10
346.8264698520566
 20
-215.775
 10
348.414183092328
 20
-218.525
 10
351.5896095728709
 20
-218.525
 10
353.1773228131424
 20
-215.775
 10
351.589609572871
 20
-213.025
  0
LWPOLYLINE
  5
108
100
AcDbEntity
  8
0
  6
ByLayer
 62
  256
370
   -1
100
AcDbPolyline
 90
    6
 70
    1
 43
0
 10
593.6141830923281
 20
-213.025
 10
592.0264698520566
 20
-215.775
 10
593.6141830923281
 20
-218.525
 10
596.789609572871
 20
-218.525
 10
598.3773228131424
 20
-215.775
 10
596.7896095728711
 20
-213.025
  0
LWPOLYLINE
  5
109
100
AcDbEntity
  8
0
  6
ByLayer
 62
  256
370
   -1
100
AcDbPolyline
 90
    6
 70
    1
 43
0
 10
595.1127132402714
 20
-162.3749979585409
 10
596.7004264805429
 20
-159.6249979585409
 10
595.1127132402714
 20
-156.8749979585409
 10
591.9372867597285
 20
-156.8749979585409
 10
590.3495735194571
 20
-159.6249979585409
 10
591.9372867597285
 20
-162.3749979585409
  0
LWPOLYLINE
  5
10A
100
AcDbEntity
  8
0
  6
ByLayer
 62
  256
370
   -1
100
AcDbPolyline
 90
    6
 70
    1
 43
0
 10
570.789609572871
 20
-99.52500000000001
 10
572.3773228131424
 20
-96.77500000000002
 10
570.789609572871
 20
-94.02500000000003
 10
567.6141830923281
 20
-94.02500000000003
 10
566.0264698520566
 20
-96.77500000000002
 10
567.6141830923281
 20
-99.52500000000001
  0
LWPOLYLINE
  5
10B
100
AcDbEntity
  8
0
  6
ByLayer
 62
  256
370
   -1
100
AcDbPolyline
 90
    6
 70
    1
 43
0
 10
132.589609572871
 20
-99.52500000000001
 10
134.1773228131424
 20
-96.77500000000002
 10
132.589609572871
 20
-94.02500000000003
 10
129.414183092328
 20
-94.02500000000003
 10
127.8264698520566
 20
-96.77500000000002
 10
129.414183092328
 20
-99.52500000000001
  0
LWPOLYLINE
  5
10C
100
AcDbEntity
  8
0
  6
ByLayer
 62
  256
370
   -1
100
AcDbPolyline
 90
    6
 70
    1
 43
0
 10
108.0627132402715
 20
-162.3749979585409
 10
109.6504264805429
 20
-159.6249979585409
 10
108.0627132402715
 20
-156.8749979585409
 10
104.8872867597285
 20
-156.8749979585409
 10
103.2995735194571
 20
-159.6249979585409
 10
104.8872867597285
 20
-162.3749979585409
  0
LWPOLYLINE
  5
10D
100
AcDbEntity
  8
0
  6
ByLayer
 62
  256
370
   -1
100
AcDbPolyline
 90
    6
 70
    1
 43
0
 10
103.4141830923281
 20
-213.025
 10
101.8264698520566
 20
-215.775
 10
103.4141830923281
 20
-218.525
 10
106.589609572871
 20
-218.525
 10
108.1773228131425
 20
-215.775
 10
106.589609572871
 20
-213.025
  0
LWPOLYLINE
  5
10E
100
AcDbEntity
  8
0
  6
ByLayer
 62
  256
370
   -1
100
AcDbPolyline
 90
    6
 70
    1
 43
0
 10
36.25929646834948
 20
-210.9999934732914
 10
38.56869754510797
 20
-206.9999934732914
 10
36.25929646834948
 20
-202.9999934732914
 10
31.64049431483249
 20
-202.9999934732914
 10
29.331093238074
 20
-206.9999934732914
 10
31.64049431483249
 20
-210.9999934732914
  0
LWPOLYLINE
  5
10F
100
AcDbEntity
  8
0
  6
ByLayer
 62
  256
370
   -1
100
AcDbPolyline
 90
    6
 70
    1
 43
0
 10
36.25929646834948
 20
-178.9999941885471
 10
38.56869754510797
 20
-174.9999941885471
 10
36.25929646834948
 20
-170.9999941885471
 10
31.64049431483249
 20
-170.9999941885471
 10
29.331093238074
 20
-174.9999941885471
 10
31.64049431483249
 20
-178.9999941885471
  0
LWPOLYLINE
  5
110
100
AcDbEntity
  8
0
  6
ByLayer
 62
  256
370
   -1
100
AcDbPolyline
 90
    6
 70
    1
 43
0
 10
668.3594020177669
 20
-210.9999934732914
 10
670.6688030945254
 20
-206.9999934732914
 10
668.3594020177669
 20
-202.9999934732914
 10
663.7405998642499
 20
-202.9999934732914
 10
661.4311987874914
 20
-206.9999934732914
 10
663.7405998642499
 20
-210.9999934732914
  0
LWPOLYLINE
  5
111
100
AcDbEntity
  8
0
  6
ByLayer
 62
  256
370
   -1
100
AcDbPolyline
 90
    6
 70
    1
 43
0
 10
668.3594020177669
 20
-178.9999941885471
 10
670.6688030945254
 20
-174.9999941885471
 10
668.3594020177669
 20
-170.9999941885471
 10
663.7405998642499
 20
-170.9999941885471
 10
661.4311987874914
 20
-174.9999941885471
 10
663.7405998642499
 20
-178.9999941885471
  0
LINE
  5
112
100
AcDbEntity
  8
0
  6
ByLayer
 62
  256
370
   -1
100
AcDbLine
 10
349.9999481662997
 20
68.23750000000001
 11
351
 21
68.23750000000001
  0
LINE
  5
113
100
AcDbEntity
  8
0
  6
ByLayer
 62
  256
370
   -1
100
AcDbLine
 10
370
 20
87.23750000000001
 11
370
 21
136.475
  0
LINE
  5
114
100
AcDbEntity
  8
0
  6
ByLayer
 62
  256
370
   -1
100
AcDbLine
 10
349.9999481662997
 20
68.23750000000001
 11
349
 21
68.23750000000001
  0
LINE
  5
115
100
AcDbEntity
  8
0
  6
ByLayer
 62
  256
370
   -1
100
AcDbLine
 10
330
 20
49.2375
 11
330
 21
0
  0
LINE
  5
116
100
AcDbEntity
  8
0
  6
ByLayer
 62
  256
370
   -1
100
AcDbLine
 10
349.9999481662997
 20
-151.7625
 11
351
 21
-151.7625
  0
LINE
  5
117
100
AcDbEntity
  8
0
  6
ByLayer
 62
  256
370
   -1
100
AcDbLine
 10
370
 20
-132.7625
 11
370
 21
-83.52499999999999
  0
LINE
  5
118
100
AcDbEntity
  8
0
  6
ByLayer
 62
  256
370
   -1
100
AcDbLine
 10
349.9999481662997
 20
-151.7625
 11
349
 21
-151.7625
  0
LINE
  5
119
100
AcDbEntity
  8
0
  6
ByLayer
 62
  256
370
   -1
100
AcDbLine
 10
330.0000000000001
 20
-170.7625
 11
330
 21
-220
  0
ARC
  5
11A
100
AcDbEntity
  8
0
  6
ByLayer
 62
  256
370
   -1
100
AcDbCircle
 10
349
 20
-170.7624999999999
 40
18.99999999999999
100
AcDbArc
 50
90
 51
180
  0
ARC
  5
11B
100
AcDbEntity
  8
0
  6
ByLayer
 62
  256
370
   -1
100
AcDbCircle
 10
351.0000000000002
 20
-132.7625000000001
 40
18.99999999999984
100
AcDbArc
 50
-90.00000000000051
 51
0
  0
ARC
  5
11C
100
AcDbEntity
  8
0
  6
ByLayer
 62
  256
370
   -1
100
AcDbCircle
 10
349
 20
49.2375
 40
19
100
AcDbArc
 50
90
 51
180
  0
ARC
  5
11D
100
AcDbEntity
  8
0
  6
ByLayer
 62
  256
370
   -1
100
AcDbCircle
 10
351.0000000000001
 20
87.23749999999994
 40
18.99999999999993
100
AcDbArc
 50
-90.00000000000037
 51
0
  0
LWPOLYLINE
  5
11E
100
AcDbEntity
  8
0
  6
ByLayer
 62
  256
370
   -1
100
AcDbPolyline
 90
   28
 70
    1
 43
0
 10
3
 20
-248.9999983459711
 10
11.00000020861626
 20
-248.9999983459711
 42
0.4142135623730904
 10
14.00000020861626
 20
-245.9999983459711
 10
14.00000020861626
 20
-226.525
 42
-0.4142135623730888
 10
17.00000020861623
 20
-223.525
 10
394.000005915761
 20
-223.525
 42
-0.4142135623730868
 10
397.000005915761
 20
-226.525
 10
397.000005915761
 20
-247.9999983757734
 42
0.4142135623730963
 10
400.000005915761
 20
-250.9999983757734
 10
454.0000068098307
 20
-250.9999983757734
 42
0.4142135623730966
 10
457.0000068098307
 20
-247.9999983757734
 10
457.0000068098307
 20
-241.9999981969595
 42
0.4142135623730966
 10
454.0000068098307
 20
-238.9999981969595
 10
437.5275044126411
 20
-238.9999981969595
 42
-0.4142135623730963
 10
434.5275044126411
 20
-235.9999981969595
 10
434.5275044126411
 20
-226.525
 42
-0.414213562373095
 10
437.5275044126411
 20
-223.525
 10
483.0018961239832
 20
-223.525
 42
-0.4142135623730976
 10
486.0018961239832
 20
-226.525
 10
486.0018961239832
 20
-245.9999983459711
 42
0.4142135623730963
 10
489.0018961239832
 20
-248.9999983459711
 10
496.9998963325995
 20
-248.9999983459711
 42
-0.4142135623730937
 10
499.9998963325993
 20
-251.9999983459711
 10
499.9998963325995
 20
-357.000888739801
 42
-0.414213562373094
 10
497.0007850724005
 20
-360
 10
3
 20
-360
 42
-0.4142135623730961
 10
-4.440892098500626e-16
 20
-357
 10
-2.220446049250313e-15
 20
-251.9999983459711
 42
-0.4142135623730904
  0
CIRCLE
  5
11F
100
AcDbEntity
  8
0
  6
ByLayer
 62
  256
370
   -1
100
AcDbCircle
 10
31.00189633259951
 20
-236.775
 40
1.499999999999968
  0
CIRCLE
  5
120
100
AcDbEntity
  8
0
  6
ByLayer
 62
  256
370
   -1
100
AcDbCircle
 10
250.0018963325995
 20
-242.775
 40
1.50000000000001
  0
CIRCLE
  5
121
100
AcDbEntity
  8
0
  6
ByLayer
 62
  256
370
   -1
100
AcDbCircle
 10
31
 20
-236.775
 40
1.5
  0
CIRCLE
  5
122
100
AcDbEntity
  8
0
  6
ByLayer
 62
  256
370
   -1
100
AcDbCircle
 10
250.0018963325995
 20
-355.775
 40
1.499999999999986
  0
CIRCLE
  5
123
100
AcDbEntity
  8
0
  6
ByLayer
 62
  256
370
   -1
100
AcDbCircle
 10
6.475000000000001
 20
-299.6249979585409
 40
1.5
  0
CIRCLE
  5
124
100
AcDbEntity
  8
0
  6
ByLayer
 62
  256
370
   -1
100
AcDbCircle
 10
5.001896332599536
 20
-355.775
 40
1.499999999999986
  0
CIRCLE
  5
125
100
AcDbEntity
  8
0
  6
ByLayer
 62
  256
370
   -1
100
AcDbCircle
 10
6.474999999999995
 20
-299.65
 40
1.5
  0
CIRCLE
  5
126
100
AcDbEntity
  8
0
  6
ByLayer
 62
  256
370
   -1
100
AcDbCircle
 10
469.2018963325995
 20
-236.775
 40
1.499999999999968
  0
CIRCLE
  5
127
100
AcDbEntity
  8
0
  6
ByLayer
 62
  256
370
   -1
100
AcDbCircle
 10
493.525
 20
-299.6249979585409
 40
1.5
  0
CIRCLE
  5
128
100
AcDbEntity
  8
0
  6
ByLayer
 62
  256
370
   -1
100
AcDbCircle
 10
495.2018963325995
 20
-355.775
 40
1.499999999999986
  0
LWPOLYLINE
  5
129
100
AcDbEntity
  8
0
  6
ByLayer
 62
  256
370
   -1
100
AcDbPolyline
 90
   12
 70
    1
 43
0
 10
21.42819926235456
 20
-258.65
 10
478.5718007376455
 20
-258.65
 42
-0.3639702342661848
 10
480.5414162436699
 20
-260.3027036446662
 10
487.1732176203118
 20
-297.9135182233308
 42
-0.08748866352593868
 10
487.1732176203118
 20
-301.3864817766693
 10
480.5414162436699
 20
-338.9972963553339
 42
-0.3639702342661878
 10
478.5718007376455
 20
-340.65
 10
21.42819926235456
 20
-340.65
 42
-0.3639702342662011
 10
19.45858375633015
 20
-338.9972963553339
 10
12.88802009743537
 20
-301.7337781320032
 42
-0.08748866352592345
 10
12.88802009743537
 20
-297.5662218679968
 10
19.45858375633015
 20
-260.3027036446662
 42
-0.3639702342662111
  0
LWPOLYLINE
  5
12A
100
AcDbEntity
  8
0
  6
ByLayer
 62
  256
370
   -1
100
AcDbPolyline
 90
    8
 70
    1
 43
0
 10
278.0000041425228
 20
-241.9999982863665
 42
0.4142135623730937
 10
281.0000041425228
 20
-244.9999982863665
 10
297.0000044703483
 20
-244.9999982863665
 42
0.4142135623730992
 10
300.0000044703484
 20
-241.9999982863665
 10
300.0000044703484
 20
-231.9999980479479
 42
0.414213562373095
 10
297.0000044703484
 20
-228.9999980479479
 10
281.0000041425228
 20
-228.9999980479479
 42
0.414213562373095
 10
278.0000041425228
 20
-231.9999980479479
  0
CIRCLE
  5
12B
100
AcDbEntity
  8
0
  6
ByLayer
 62
  256
370
   -1
100
AcDbCircle
 10
469.2018963325995
 20
-386.775
 40
1.499999999999968
  0
LWPOLYLINE
  5
12C
100
AcDbEntity
  8
0
  6
ByLayer
 62
  256
370
   -1
100
AcDbPolyline
 90
   28
 70
    1
 43
0
 10
454.0000068098307
 20
-400.9999983757734
 42
0.4142135623730966
 10
457.0000068098307
 20
-397.9999983757734
 10
457.0000068098307
 20
-391.9999981969595
 42
0.4142135623730966
 10
454.0000068098307
 20
-388.9999981969595
 10
437.5275044126411
 20
-388.9999981969595
 42
-0.4142135623730963
 10
434.5275044126411
 20
-385.9999981969595
 10
434.5275044126411
 20
-376.525
 42
-0.414213562373095
 10
437.5275044126411
 20
-373.525
 10
483.0018961239832
 20
-373.525
 42
-0.4142135623730976
 10
486.0018961239832
 20
-376.525
 10
486.0018961239832
 20
-395.9999983459711
 42
0.4142135623730963
 10
489.0018961239832
 20
-398.9999983459711
 10
496.9998963325995
 20
-398.9999983459711
 42
-0.4142135623730937
 10
499.9998963325993
 20
-401.9999983459711
 10
499.9998963325995
 20
-507.0008887634638
 42
-0.4142135623730961
 10
497.0007850960633
 20
-510
 10
3
 20
-510
 42
-0.4142135623730961
 10
-4.440892098500626e-16
 20
-507
 10
-2.220446049250313e-15
 20
-401.9999983459711
 42
-0.4142135623730904
 10
3
 20
-398.9999983459711
 10
11.00000020861626
 20
-398.9999983459711
 42
0.4142135623730904
 10
14.00000020861626
 20
-395.9999983459711
 10
14.00000020861626
 20
-376.525
 42
-0.4142135623730888
 10
17.00000020861623
 20
-373.525
 10
394.000005915761
 20
-373.525
 42
-0.4142135623730868
 10
397.000005915761
 20
-376.525
 10
397.000005915761
 20
-397.9999983757734
 42
0.4142135623730963
 10
400.000005915761
 20
-400.9999983757734
  0
CIRCLE
  5
12D
100
AcDbEntity
  8
0
  6
ByLayer
 62
  256
370
   -1
100
AcDbCircle
 10
31
 20
-386.775
 40
1.5
  0
CIRCLE
  5
12E
100
AcDbEntity
  8
0
  6
ByLayer
 62
  256
370
   -1
100
AcDbCircle
 10
5.001896332599536
 20
-505.775
 40
1.499999999999986
  0
CIRCLE
  5
12F
100
AcDbEntity
  8
0
  6
ByLayer
 62
  256
370
   -1
100
AcDbCircle
 10
495.2018963325995
 20
-505.775
 40
1.499999999999986
  0
CIRCLE
  5
130
100
AcDbEntity
  8
0
  6
ByLayer
 62
  256
370
   -1
100
AcDbCircle
 10
250.0018963325995
 20
-392.775
 40
1.50000000000001
  0
CIRCLE
  5
131
100
AcDbEntity
  8
0
  6
ByLayer
 62
  256
370
   -1
100
AcDbCircle
 10
6.474999999999995
 20
-449.65
 40
1.5
  0
CIRCLE
  5
132
100
AcDbEntity
  8
0
  6
ByLayer
 62
  256
370
   -1
100
AcDbCircle
 10
6.475000000000001
 20
-449.6249979585409
 40
1.5
  0
CIRCLE
  5
133
100
AcDbEntity
  8
0
  6
ByLayer
 62
  256
370
   -1
100
AcDbCircle
 10
250.0018963325995
 20
-505.775
 40
1.499999999999986
  0
CIRCLE
  5
134
100
AcDbEntity
  8
0
  6
ByLayer
 62
  256
370
   -1
100
AcDbCircle
 10
493.525
 20
-449.6249979585409
 40
1.5
  0
CIRCLE
  5
135
100
AcDbEntity
  8
0
  6
ByLayer
 62
  256
370
   -1
100
AcDbCircle
 10
31.00189633259951
 20
-386.775
 40
1.499999999999968
  0
LWPOLYLINE
  5
136
100
AcDbEntity
  8
0
  6
ByLayer
 62
  256
370
   -1
100
AcDbPolyline
 90
    4
 70
    1
 43
0
 10
472.0000070482492
 20
-492.9999997317791
 10
24.488538748046
 20
-492.9999997317791
 10
24.488538748046
 20
-499.4999998658895
 10
472.0000070482492
 20
-499.4999998658895
  0
LWPOLYLINE
  5
137
100
AcDbEntity
  8
0
  6
ByLayer
 62
  256
370
   -1
100
AcDbPolyline
 90
    4
 70
    1
 43
0
 10
94.00000140070915
 20
-379.499998062849
 10
110.5000016391277
 20
-379.499998062849
 10
110.5000016391277
 20
-387.4999981671572
 10
94.00000140070915
 20
-387.4999981671572
  0
LWPOLYLINE
  5
138
100
AcDbEntity
  8
0
  6
ByLayer
 62
  256
370
   -1
100
AcDbPolyline
 90
    4
 70
    1
 43
0
 10
336.8000014007092
 20
-379.499998062849
 10
353.3000016391279
 20
-379.499998062849
 10
353.3000016391279
 20
-387.4999981671572
 10
336.8000014007092
 20
-387.4999981671572
  0
ENDSEC
  0
SECTION
  2
OBJECTS
  0
DICTIONARY
  5
C
330
0
100
AcDbDictionary
281
    1
  3
ACAD_GROUP
350
D
  0
DICTIONARY
  5
D
330
C
100
AcDbDictionary
281
    1
  0
PLOTSETTINGS
  5
139
100
AcDbPlotSettings
  6
1x1
 40
0
 41
0
 42
0
 43
0
  0
ENDSEC
  0
EOF
